<svg xmlns="http://www.w3.org/2000/svg" xmlns:xlink="http://www.w3.org/1999/xlink" xmlns:lucid="lucid" width="893.71" height="630.11"><g transform="translate(0 0)" lucid:page-tab-id="HWEp-vi-RSFO"><path d="M0 0h893.7v630.1H0z" fill="#fff"/><path d="M0 260h240v60H0z" fill="none"/><use xlink:href="#a" transform="matrix(1,0,0,1,0,260) translate(66.025 14.4)"/><use xlink:href="#b" transform="matrix(1,0,0,1,0,260) translate(117.97500000000001 14.4)"/><use xlink:href="#c" transform="matrix(1,0,0,1,0,260) translate(81.57499999999999 36)"/><use xlink:href="#d" transform="matrix(1,0,0,1,0,260) translate(92.52499999999999 36)"/><use xlink:href="#c" transform="matrix(1,0,0,1,0,260) translate(68.57499999999999 57.6)"/><use xlink:href="#e" transform="matrix(1,0,0,1,0,260) translate(79.52499999999999 57.6)"/><use xlink:href="#f" transform="matrix(1,0,0,1,0,260) translate(99.52499999999999 57.6)"/><use xlink:href="#c" transform="matrix(1,0,0,1,0,260) translate(93.05 79.20000000000002)"/><use xlink:href="#g" transform="matrix(1,0,0,1,0,260) translate(104 79.20000000000002)"/><path d="M0 180h240v60H0z" fill="none"/><use xlink:href="#h" transform="matrix(1,0,0,1,0,180.00000000000003) translate(63.05 14.4)"/><use xlink:href="#i" transform="matrix(1,0,0,1,0,180.00000000000003) translate(115 14.4)"/><use xlink:href="#j" transform="matrix(1,0,0,1,0,180.00000000000003) translate(86.05 36)"/><use xlink:href="#k" transform="matrix(1,0,0,1,0,180.00000000000003) translate(97 36)"/><use xlink:href="#j" transform="matrix(1,0,0,1,0,180.00000000000003) translate(84.07499999999999 57.6)"/><use xlink:href="#l" transform="matrix(1,0,0,1,0,180.00000000000003) translate(95.02499999999999 57.6)"/><path d="M280 180h300v435H280z" stroke="#333" stroke-width="2" fill="#fff"/><path d="M280 217.6h300M280 426.9h300" stroke="#333" stroke-width="2" fill="none"/><use xlink:href="#m" transform="matrix(1,0,0,1,288,188) translate(117.525 14.6)"/><use xlink:href="#n" transform="matrix(1,0,0,1,292,225.6) translate(0 25.000000000000007)"/><use xlink:href="#o" transform="matrix(1,0,0,1,292,225.6) translate(55.85 25.000000000000007)"/><use xlink:href="#p" transform="matrix(1,0,0,1,292,225.6) translate(65.85 25.000000000000007)"/><use xlink:href="#q" transform="matrix(1,0,0,1,292,225.6) translate(0 46.60000000000001)"/><use xlink:href="#o" transform="matrix(1,0,0,1,292,225.6) translate(84.85000000000001 46.60000000000001)"/><use xlink:href="#r" transform="matrix(1,0,0,1,292,225.6) translate(94.85000000000001 46.60000000000001)"/><use xlink:href="#s" transform="matrix(1,0,0,1,292,225.6) translate(0 68.20000000000002)"/><use xlink:href="#o" transform="matrix(1,0,0,1,292,225.6) translate(70.9 68.20000000000002)"/><use xlink:href="#t" transform="matrix(1,0,0,1,292,225.6) translate(80.9 68.20000000000002)"/><use xlink:href="#u" transform="matrix(1,0,0,1,292,225.6) translate(0 89.80000000000003)"/><use xlink:href="#v" transform="matrix(1,0,0,1,292,225.6) translate(137.9 89.80000000000003)"/><use xlink:href="#w" transform="matrix(1,0,0,1,292,225.6) translate(152.9 89.80000000000003)"/><use xlink:href="#x" transform="matrix(1,0,0,1,292,225.6) translate(0 111.40000000000002)"/><use xlink:href="#o" transform="matrix(1,0,0,1,292,225.6) translate(58.95 111.40000000000002)"/><use xlink:href="#y" transform="matrix(1,0,0,1,292,225.6) translate(68.95 111.40000000000002)"/><use xlink:href="#z" transform="matrix(1,0,0,1,292,225.6) translate(0 133)"/><use xlink:href="#o" transform="matrix(1,0,0,1,292,225.6) translate(66.85 133)"/><use xlink:href="#y" transform="matrix(1,0,0,1,292,225.6) translate(76.85 133)"/><use xlink:href="#A" transform="matrix(1,0,0,1,292,225.6) translate(0 154.6)"/><use xlink:href="#o" transform="matrix(1,0,0,1,292,225.6) translate(70.9 154.6)"/><use xlink:href="#B" transform="matrix(1,0,0,1,292,225.6) translate(80.9 154.6)"/><use xlink:href="#C" transform="matrix(1,0,0,1,292,225.6) translate(0 176.20000000000002)"/><use xlink:href="#o" transform="matrix(1,0,0,1,292,225.6) translate(116.75 176.20000000000002)"/><use xlink:href="#D" transform="matrix(1,0,0,1,292,225.6) translate(126.75 176.20000000000002)"/><g><use xlink:href="#E" transform="matrix(1,0,0,1,292,434.9) translate(0 24.800000000000004)"/><use xlink:href="#F" transform="matrix(1,0,0,1,292,434.9) translate(173.85 24.800000000000004)"/><use xlink:href="#G" transform="matrix(1,0,0,1,292,434.9) translate(232.8 24.800000000000004)"/><use xlink:href="#w" transform="matrix(1,0,0,1,292,434.9) translate(0 46.400000000000006)"/><use xlink:href="#H" transform="matrix(1,0,0,1,292,434.9) translate(0 68.00000000000001)"/><use xlink:href="#o" transform="matrix(1,0,0,1,292,434.9) translate(129.75 68.00000000000001)"/><use xlink:href="#I" transform="matrix(1,0,0,1,292,434.9) translate(139.75 68.00000000000001)"/><use xlink:href="#J" transform="matrix(1,0,0,1,292,434.9) translate(0 89.60000000000002)"/><use xlink:href="#G" transform="matrix(1,0,0,1,292,434.9) translate(269.74999999999994 89.60000000000002)"/><use xlink:href="#w" transform="matrix(1,0,0,1,292,434.9) translate(0 111.20000000000002)"/><use xlink:href="#K" transform="matrix(1,0,0,1,292,434.9) translate(0 132.8)"/><use xlink:href="#G" transform="matrix(1,0,0,1,292,434.9) translate(207.89999999999995 132.8)"/><use xlink:href="#L" transform="matrix(1,0,0,1,292,434.9) translate(0 154.4)"/></g><path d="M40 8c0-4.42 3.58-8 8-8h836.75c4.42 0 8 3.58 8 8v94.44c0 4.42-3.58 8-8 8H48c-4.42 0-8-3.58-8-8z" stroke="#000" stroke-opacity="0" stroke-width="2" fill="#fff" fill-opacity="0"/><g><use xlink:href="#M" transform="matrix(1,0,0,1,44,4.000000000000007) translate(296.5927160493827 23.93777777777777)"/><use xlink:href="#N" transform="matrix(1,0,0,1,44,4.000000000000007) translate(331.55567901234565 23.93777777777777)"/><use xlink:href="#O" transform="matrix(1,0,0,1,44,4.000000000000007) translate(440.66925925925926 23.93777777777777)"/><use xlink:href="#P" transform="matrix(1,0,0,1,44,4.000000000000007) translate(504.03962962962964 23.93777777777777)"/><use xlink:href="#Q" transform="matrix(1,0,0,1,44,4.000000000000007) translate(206.81802469135803 58.08444444444444)"/><use xlink:href="#R" transform="matrix(1,0,0,1,44,4.000000000000007) translate(307.2637037037037 58.08444444444444)"/><use xlink:href="#S" transform="matrix(1,0,0,1,44,4.000000000000007) translate(464.3785185185185 58.08444444444444)"/><use xlink:href="#T" transform="matrix(1,0,0,1,44,4.000000000000007) translate(425.81 92.2311111111111)"/></g><path d="M40 88c0-4.42 3.58-8 8-8h837.7c4.43 0 8 3.58 8 8v2.84c0 4.42-3.57 8-8 8H48c-4.42 0-8-3.58-8-8z" stroke="#000" stroke-opacity="0" stroke-width="2" fill="#fff" fill-opacity="0"/><g><use xlink:href="#U" transform="matrix(1,0,0,1,44,84.00000000000001) translate(184.37358024691363 14.917037037037037)"/><use xlink:href="#V" transform="matrix(1,0,0,1,44,84.00000000000001) translate(231.91956790123461 14.917037037037037)"/><use xlink:href="#W" transform="matrix(1,0,0,1,44,84.00000000000001) translate(279.42306584362143 14.917037037037037)"/><use xlink:href="#X" transform="matrix(1,0,0,1,44,84.00000000000001) translate(287.9210082304527 14.917037037037037)"/><use xlink:href="#Y" transform="matrix(1,0,0,1,44,84.00000000000001) translate(323.52738683127575 14.917037037037037)"/><use xlink:href="#Z" transform="matrix(1,0,0,1,44,84.00000000000001) translate(387.176975308642 14.917037037037037)"/><use xlink:href="#aa" transform="matrix(1,0,0,1,44,84.00000000000001) translate(427.0323251028807 14.917037037037037)"/><use xlink:href="#ab" transform="matrix(1,0,0,1,44,84.00000000000001) translate(465.7829423868312 14.917037037037037)"/><use xlink:href="#ac" transform="matrix(1,0,0,1,44,84.00000000000001) translate(508.14518518518514 14.917037037037037)"/><use xlink:href="#ad" transform="matrix(1,0,0,1,44,84.00000000000001) translate(546.2159670781892 14.917037037037037)"/><use xlink:href="#ae" transform="matrix(1,0,0,1,44,84.00000000000001) translate(558.6654526748971 14.917037037037037)"/><use xlink:href="#af" transform="matrix(1,0,0,1,44,84.00000000000001) translate(617.2587654320987 14.917037037037037)"/><use xlink:href="#ag" transform="matrix(1,0,0,1,44,84.00000000000001) translate(634.2546502057613 14.917037037037037)"/></g><path d="M680 180h200v113H680z" stroke="#333" stroke-width="2" fill="#fff"/><path d="M680 217.6h200m-200 37.6h200" stroke="#333" stroke-width="2" fill="none"/><g><use xlink:href="#ah" transform="matrix(1,0,0,1,688,188.00000000000003) translate(17.599999999999994 14.6)"/><use xlink:href="#ai" transform="matrix(1,0,0,1,688,188.00000000000003) translate(88.55 14.6)"/></g><path d="M680 302.56h200v113H680z" stroke="#333" stroke-width="2" fill="#fff"/><path d="M680 340.16h200m-200 37.6h200" stroke="#333" stroke-width="2" fill="none"/><g><use xlink:href="#ah" transform="matrix(1,0,0,1,688,310.56) translate(25.549999999999997 14.6)"/><use xlink:href="#aj" transform="matrix(1,0,0,1,688,310.56) translate(96.5 14.6)"/></g><path d="M678.5 236.5h-12.17m-12.16 0H642l-3.1.4-2.9 1.2-2.5 1.9-1.9 2.5-1.2 2.9-.4 3.1v11.58l-.4 3.1-1.2 2.9-1.9 2.48-2.5 1.92-2.9 1.2-3.1.4h-12.03m-12.03 0H581.9" stroke="#333" fill="none"/><path d="M679 237h-.5v-1h.5z" fill="#333"/><path d="M599.2 261.9l-17.22 10.18 17.22 10.18M678.5 359.06h-12.17m-12.16 0H642l-3.1-.4-2.9-1.2-2.5-1.9-1.9-2.5-1.2-2.9-.4-3.1v-13.9m0-13.9v-13.92l-.4-3.1-1.2-2.9-1.9-2.48-2.5-1.92-2.9-1.2-3.1-.4h-12.03m-12.03 0H581.9" stroke="#333" fill="none"/><path d="M679 359.56h-.5v-1h.5z" fill="#333"/><path d="M599.2 283.16l-17.22 10.18 17.22 10.18" stroke="#333" fill="none"/><path d="M680 425.12h200v113H680z" stroke="#333" stroke-width="2" fill="#fff"/><path d="M680 462.72h200m-200 37.6h200" stroke="#333" stroke-width="2" fill="none"/><g><use xlink:href="#ah" transform="matrix(1,0,0,1,688,433.12) translate(28.049999999999997 14.6)"/><use xlink:href="#ak" transform="matrix(1,0,0,1,688,433.12) translate(99 14.6)"/></g><path d="M581.5 500.24h13.06m13.07 0h13.06l3.14-.55 2.68-1.5 2.04-2.3 1.2-2.87.24-2.1.55-3.15 1.5-2.68 2.3-2.04 2.86-1.2 2.1-.24h12.94m12.92 0h12.93" stroke="#333" fill="none"/><path d="M581.5 500.74h-.5v-1h.5z" fill="#333"/><path d="M660.8 491.8l17.22-10.18-17.22-10.18" stroke="#333" fill="none"/><defs><path d="M30 0v-248h187v28H63v79h144v27H63v87h162V0H30" id="al"/><path d="M117-194c89-4 53 116 60 194h-32v-121c0-31-8-49-39-48C34-167 62-67 57 0H25l-1-190h30c1 10-1 24 2 32 11-22 29-35 61-36" id="am"/><path d="M84 4C-5 8 30-112 23-190h32v120c0 31 7 50 39 49 72-2 45-101 50-169h31l1 190h-30c-1-10 1-25-2-33-11 22-28 36-60 37" id="an"/><path d="M210-169c-67 3-38 105-44 169h-31v-121c0-29-5-50-35-48C34-165 62-65 56 0H25l-1-190h30c1 10-1 24 2 32 10-44 99-50 107 0 11-21 27-35 58-36 85-2 47 119 55 194h-31v-121c0-29-5-49-35-48" id="ao"/><g id="a"><use transform="matrix(0.05,0,0,0.05,0,0)" xlink:href="#al"/><use transform="matrix(0.05,0,0,0.05,12,0)" xlink:href="#am"/><use transform="matrix(0.05,0,0,0.05,22,0)" xlink:href="#an"/><use transform="matrix(0.05,0,0,0.05,32,0)" xlink:href="#ao"/></g><path d="M185-189c-5-48-123-54-124 2 14 75 158 14 163 119 3 78-121 87-175 55-17-10-28-26-33-46l33-7c5 56 141 63 141-1 0-78-155-14-162-118-5-82 145-84 179-34 5 7 8 16 11 25" id="ap"/><path d="M59-47c-2 24 18 29 38 22v24C64 9 27 4 27-40v-127H5v-23h24l9-43h21v43h35v23H59v120" id="aq"/><path d="M141-36C126-15 110 5 73 4 37 3 15-17 15-53c-1-64 63-63 125-63 3-35-9-54-41-54-24 1-41 7-42 31l-33-3c5-37 33-52 76-52 45 0 72 20 72 64v82c-1 20 7 32 28 27v20c-31 9-61-2-59-35zM48-53c0 20 12 33 32 33 41-3 63-29 60-74-43 2-92-5-92 41" id="ar"/><path d="M135-143c-3-34-86-38-87 0 15 53 115 12 119 90S17 21 10-45l28-5c4 36 97 45 98 0-10-56-113-15-118-90-4-57 82-63 122-42 12 7 21 19 24 35" id="as"/><path d="M33-154v-36h34v36H33zM33 0v-36h34V0H33" id="at"/><g id="b"><use transform="matrix(0.05,0,0,0.05,0,0)" xlink:href="#ap"/><use transform="matrix(0.05,0,0,0.05,12,0)" xlink:href="#aq"/><use transform="matrix(0.05,0,0,0.05,17,0)" xlink:href="#ar"/><use transform="matrix(0.05,0,0,0.05,27,0)" xlink:href="#aq"/><use transform="matrix(0.05,0,0,0.05,32,0)" xlink:href="#an"/><use transform="matrix(0.05,0,0,0.05,42,0)" xlink:href="#as"/><use transform="matrix(0.05,0,0,0.05,51,0)" xlink:href="#at"/></g><path d="M16-82v-28h88v28H16" id="au"/><use transform="matrix(0.05,0,0,0.05,0,0)" xlink:href="#au" id="c"/><path d="M140-251c81 0 123 46 123 126C263-46 219 4 140 4 59 4 17-45 17-125s42-126 123-126zm0 227c63 0 89-41 89-101s-29-99-89-99c-61 0-89 39-89 99S79-25 140-24" id="av"/><path d="M114-163C36-179 61-72 57 0H25l-1-190h30c1 12-1 29 2 39 6-27 23-49 58-41v29" id="aw"/><path d="M85-194c31 0 48 13 60 33l-1-100h32l1 261h-30c-2-10 0-23-3-31C134-8 116 4 85 4 32 4 16-35 15-94c0-66 23-100 70-100zm9 24c-40 0-46 34-46 75 0 40 6 74 45 74 42 0 51-32 51-76 0-42-9-74-50-73" id="ax"/><path d="M100-194c63 0 86 42 84 106H49c0 40 14 67 53 68 26 1 43-12 49-29l28 8c-11 28-37 45-77 45C44 4 14-33 15-96c1-61 26-98 85-98zm52 81c6-60-76-77-97-28-3 7-6 17-6 28h103" id="ay"/><g id="d"><use transform="matrix(0.05,0,0,0.05,0,0)" xlink:href="#av"/><use transform="matrix(0.05,0,0,0.05,14,0)" xlink:href="#aw"/><use transform="matrix(0.05,0,0,0.05,19.95,0)" xlink:href="#ax"/><use transform="matrix(0.05,0,0,0.05,29.950000000000003,0)" xlink:href="#ay"/><use transform="matrix(0.05,0,0,0.05,39.95,0)" xlink:href="#aw"/><use transform="matrix(0.05,0,0,0.05,45.900000000000006,0)" xlink:href="#ay"/><use transform="matrix(0.05,0,0,0.05,55.900000000000006,0)" xlink:href="#ax"/></g><path d="M33 0v-248h34V0H33" id="az"/><g id="e"><use transform="matrix(0.05,0,0,0.05,0,0)" xlink:href="#az"/><use transform="matrix(0.05,0,0,0.05,5,0)" xlink:href="#am"/></g><path d="M30-248c87 1 191-15 191 75 0 78-77 80-158 76V0H30v-248zm33 125c57 0 124 11 124-50 0-59-68-47-124-48v98" id="aA"/><path d="M100-194c62-1 85 37 85 99 1 63-27 99-86 99S16-35 15-95c0-66 28-99 85-99zM99-20c44 1 53-31 53-75 0-43-8-75-51-75s-53 32-53 75 10 74 51 75" id="aB"/><path d="M177-190C167-65 218 103 67 71c-23-6-38-20-44-43l32-5c15 47 100 32 89-28v-30C133-14 115 1 83 1 29 1 15-40 15-95c0-56 16-97 71-98 29-1 48 16 59 35 1-10 0-23 2-32h30zM94-22c36 0 50-32 50-73 0-42-14-75-50-75-39 0-46 34-46 75s6 73 46 73" id="aC"/><g id="f"><use transform="matrix(0.05,0,0,0.05,0,0)" xlink:href="#aA"/><use transform="matrix(0.05,0,0,0.05,12,0)" xlink:href="#aw"/><use transform="matrix(0.05,0,0,0.05,17.95,0)" xlink:href="#aB"/><use transform="matrix(0.05,0,0,0.05,27.950000000000003,0)" xlink:href="#aC"/><use transform="matrix(0.05,0,0,0.05,37.95,0)" xlink:href="#aw"/><use transform="matrix(0.05,0,0,0.05,43.900000000000006,0)" xlink:href="#ay"/><use transform="matrix(0.05,0,0,0.05,53.900000000000006,0)" xlink:href="#as"/><use transform="matrix(0.05,0,0,0.05,62.900000000000006,0)" xlink:href="#as"/></g><path d="M30-248c118-7 216 8 213 122C240-48 200 0 122 0H30v-248zM63-27c89 8 146-16 146-99s-60-101-146-95v194" id="aD"/><g id="g"><use transform="matrix(0.05,0,0,0.05,0,0)" xlink:href="#aD"/><use transform="matrix(0.05,0,0,0.05,12.950000000000001,0)" xlink:href="#aB"/><use transform="matrix(0.05,0,0,0.05,22.950000000000003,0)" xlink:href="#am"/><use transform="matrix(0.05,0,0,0.05,32.95,0)" xlink:href="#ay"/></g><path fill="#333" d="M30 0v-248h187v28H63v79h144v27H63v87h162V0H30" id="aE"/><path fill="#333" d="M117-194c89-4 53 116 60 194h-32v-121c0-31-8-49-39-48C34-167 62-67 57 0H25l-1-190h30c1 10-1 24 2 32 11-22 29-35 61-36" id="aF"/><path fill="#333" d="M84 4C-5 8 30-112 23-190h32v120c0 31 7 50 39 49 72-2 45-101 50-169h31l1 190h-30c-1-10 1-25-2-33-11 22-28 36-60 37" id="aG"/><path fill="#333" d="M210-169c-67 3-38 105-44 169h-31v-121c0-29-5-50-35-48C34-165 62-65 56 0H25l-1-190h30c1 10-1 24 2 32 10-44 99-50 107 0 11-21 27-35 58-36 85-2 47 119 55 194h-31v-121c0-29-5-49-35-48" id="aH"/><g id="h"><use transform="matrix(0.05,0,0,0.05,0,0)" xlink:href="#aE"/><use transform="matrix(0.05,0,0,0.05,12,0)" xlink:href="#aF"/><use transform="matrix(0.05,0,0,0.05,22,0)" xlink:href="#aG"/><use transform="matrix(0.05,0,0,0.05,32,0)" xlink:href="#aH"/></g><path fill="#333" d="M33 0v-248h34V0H33" id="aI"/><path fill="#333" d="M108 0H70L1-190h34L89-25l56-165h34" id="aJ"/><path fill="#333" d="M100-194c62-1 85 37 85 99 1 63-27 99-86 99S16-35 15-95c0-66 28-99 85-99zM99-20c44 1 53-31 53-75 0-43-8-75-51-75s-53 32-53 75 10 74 51 75" id="aK"/><path fill="#333" d="M24-231v-30h32v30H24zM24 0v-190h32V0H24" id="aL"/><path fill="#333" d="M96-169c-40 0-48 33-48 73s9 75 48 75c24 0 41-14 43-38l32 2c-6 37-31 61-74 61-59 0-76-41-82-99-10-93 101-131 147-64 4 7 5 14 7 22l-32 3c-4-21-16-35-41-35" id="aM"/><path fill="#333" d="M100-194c63 0 86 42 84 106H49c0 40 14 67 53 68 26 1 43-12 49-29l28 8c-11 28-37 45-77 45C44 4 14-33 15-96c1-61 26-98 85-98zm52 81c6-60-76-77-97-28-3 7-6 17-6 28h103" id="aN"/><path fill="#333" d="M33-154v-36h34v36H33zM33 0v-36h34V0H33" id="aO"/><g id="i"><use transform="matrix(0.05,0,0,0.05,0,0)" xlink:href="#aI"/><use transform="matrix(0.05,0,0,0.05,5,0)" xlink:href="#aF"/><use transform="matrix(0.05,0,0,0.05,15,0)" xlink:href="#aJ"/><use transform="matrix(0.05,0,0,0.05,24,0)" xlink:href="#aK"/><use transform="matrix(0.05,0,0,0.05,34,0)" xlink:href="#aL"/><use transform="matrix(0.05,0,0,0.05,37.95,0)" xlink:href="#aM"/><use transform="matrix(0.05,0,0,0.05,46.95,0)" xlink:href="#aN"/><use transform="matrix(0.05,0,0,0.05,56.95,0)" xlink:href="#aO"/></g><path fill="#333" d="M16-82v-28h88v28H16" id="aP"/><use transform="matrix(0.05,0,0,0.05,0,0)" xlink:href="#aP" id="j"/><g id="k"><use transform="matrix(0.05,0,0,0.05,0,0)" xlink:href="#aI"/><use transform="matrix(0.05,0,0,0.05,5,0)" xlink:href="#aF"/><use transform="matrix(0.05,0,0,0.05,15,0)" xlink:href="#aJ"/><use transform="matrix(0.05,0,0,0.05,24,0)" xlink:href="#aK"/><use transform="matrix(0.05,0,0,0.05,34,0)" xlink:href="#aL"/><use transform="matrix(0.05,0,0,0.05,37.95,0)" xlink:href="#aM"/><use transform="matrix(0.05,0,0,0.05,46.95,0)" xlink:href="#aN"/></g><path fill="#333" d="M233-177c-1 41-23 64-60 70L243 0h-38l-65-103H63V0H30v-248c88 3 205-21 203 71zM63-129c60-2 137 13 137-47 0-61-80-42-137-45v92" id="aQ"/><path fill="#333" d="M115-194c55 1 70 41 70 98S169 2 115 4C84 4 66-9 55-30l1 105H24l-1-265h31l2 30c10-21 28-34 59-34zm-8 174c40 0 45-34 45-75s-6-73-45-74c-42 0-51 32-51 76 0 43 10 73 51 73" id="aR"/><path fill="#333" d="M59-47c-2 24 18 29 38 22v24C64 9 27 4 27-40v-127H5v-23h24l9-43h21v43h35v23H59v120" id="aS"/><g id="l"><use transform="matrix(0.05,0,0,0.05,0,0)" xlink:href="#aQ"/><use transform="matrix(0.05,0,0,0.05,12.950000000000001,0)" xlink:href="#aN"/><use transform="matrix(0.05,0,0,0.05,22.950000000000003,0)" xlink:href="#aM"/><use transform="matrix(0.05,0,0,0.05,31.950000000000003,0)" xlink:href="#aN"/><use transform="matrix(0.05,0,0,0.05,41.95,0)" xlink:href="#aL"/><use transform="matrix(0.05,0,0,0.05,45.900000000000006,0)" xlink:href="#aR"/><use transform="matrix(0.05,0,0,0.05,55.900000000000006,0)" xlink:href="#aS"/></g><path fill="#333" d="M140-251c80 0 125 45 125 126S219 4 139 4C58 4 15-44 15-125s44-126 125-126zm-1 214c52 0 73-35 73-88 0-50-21-86-72-86-52 0-73 35-73 86s22 88 72 88" id="aT"/><path fill="#333" d="M135-150c-39-12-60 13-60 57V0H25l-1-190h47c2 13-1 29 3 40 6-28 27-53 61-41v41" id="aU"/><path fill="#333" d="M88-194c31-1 46 15 58 34l-1-101h50l1 261h-48c-2-10 0-23-3-31C134-8 116 4 84 4 32 4 16-41 15-95c0-56 19-97 73-99zm17 164c33 0 40-30 41-66 1-37-9-64-41-64s-38 30-39 65c0 43 13 65 39 65" id="aV"/><path fill="#333" d="M185-48c-13 30-37 53-82 52C43 2 14-33 14-96s30-98 90-98c62 0 83 45 84 108H66c0 31 8 55 39 56 18 0 30-7 34-22zm-45-69c5-46-57-63-70-21-2 6-4 13-4 21h74" id="aW"/><g id="m"><use transform="matrix(0.05,0,0,0.05,0,0)" xlink:href="#aT"/><use transform="matrix(0.05,0,0,0.05,14,0)" xlink:href="#aU"/><use transform="matrix(0.05,0,0,0.05,21,0)" xlink:href="#aV"/><use transform="matrix(0.05,0,0,0.05,31.950000000000003,0)" xlink:href="#aW"/><use transform="matrix(0.05,0,0,0.05,41.95,0)" xlink:href="#aU"/></g><path fill="#333" d="M143 4C61 4 22-44 18-125c-5-107 100-154 193-111 17 8 29 25 37 43l-32 9c-13-25-37-40-76-40-61 0-88 39-88 99 0 61 29 100 91 101 35 0 62-11 79-27v-45h-74v-28h105v86C228-13 192 4 143 4" id="aX"/><path fill="#333" d="M232-93c-1 65-40 97-104 97C67 4 28-28 28-90v-158h33c8 89-33 224 67 224 102 0 64-133 71-224h33v155" id="aY"/><path fill="#333" d="M30-248c118-7 216 8 213 122C240-48 200 0 122 0H30v-248zM63-27c89 8 146-16 146-99s-60-101-146-95v194" id="aZ"/><g id="n"><use transform="matrix(0.05,0,0,0.05,0,0)" xlink:href="#aP"/><use transform="matrix(0.05,0,0,0.05,5.95,0)" xlink:href="#aX"/><use transform="matrix(0.05,0,0,0.05,19.95,0)" xlink:href="#aY"/><use transform="matrix(0.05,0,0,0.05,32.9,0)" xlink:href="#aI"/><use transform="matrix(0.05,0,0,0.05,37.9,0)" xlink:href="#aZ"/></g><use transform="matrix(0.05,0,0,0.05,0,0)" xlink:href="#aO" id="o"/><path fill="#333" d="M185-189c-5-48-123-54-124 2 14 75 158 14 163 119 3 78-121 87-175 55-17-10-28-26-33-46l33-7c5 56 141 63 141-1 0-78-155-14-162-118-5-82 145-84 179-34 5 7 8 16 11 25" id="ba"/><path fill="#333" d="M114-163C36-179 61-72 57 0H25l-1-190h30c1 12-1 29 2 39 6-27 23-49 58-41v29" id="bb"/><path fill="#333" d="M177-190C167-65 218 103 67 71c-23-6-38-20-44-43l32-5c15 47 100 32 89-28v-30C133-14 115 1 83 1 29 1 15-40 15-95c0-56 16-97 71-98 29-1 48 16 59 35 1-10 0-23 2-32h30zM94-22c36 0 50-32 50-73 0-42-14-75-50-75-39 0-46 34-46 75s6 73 46 73" id="bc"/><g id="p"><use transform="matrix(0.05,0,0,0.05,0,0)" xlink:href="#ba"/><use transform="matrix(0.05,0,0,0.05,12,0)" xlink:href="#aS"/><use transform="matrix(0.05,0,0,0.05,17,0)" xlink:href="#bb"/><use transform="matrix(0.05,0,0,0.05,22.95,0)" xlink:href="#aL"/><use transform="matrix(0.05,0,0,0.05,26.899999999999995,0)" xlink:href="#aF"/><use transform="matrix(0.05,0,0,0.05,36.9,0)" xlink:href="#bc"/></g><path fill="#333" d="M135-143c-3-34-86-38-87 0 15 53 115 12 119 90S17 21 10-45l28-5c4 36 97 45 98 0-10-56-113-15-118-90-4-57 82-63 122-42 12 7 21 19 24 35" id="bd"/><g id="q"><use transform="matrix(0.05,0,0,0.05,0,0)" xlink:href="#aP"/><use transform="matrix(0.05,0,0,0.05,5.95,0)" xlink:href="#aM"/><use transform="matrix(0.05,0,0,0.05,14.949999999999998,0)" xlink:href="#aG"/><use transform="matrix(0.05,0,0,0.05,24.95,0)" xlink:href="#bd"/><use transform="matrix(0.05,0,0,0.05,33.95,0)" xlink:href="#aS"/><use transform="matrix(0.05,0,0,0.05,38.95,0)" xlink:href="#aK"/><use transform="matrix(0.05,0,0,0.05,48.95,0)" xlink:href="#aH"/><use transform="matrix(0.05,0,0,0.05,63.900000000000006,0)" xlink:href="#aN"/><use transform="matrix(0.05,0,0,0.05,73.9,0)" xlink:href="#bb"/></g><path fill="#333" d="M212-179c-10-28-35-45-73-45-59 0-87 40-87 99 0 60 29 101 89 101 43 0 62-24 78-52l27 14C228-24 195 4 139 4 59 4 22-46 18-125c-6-104 99-153 187-111 19 9 31 26 39 46" id="be"/><g id="r"><use transform="matrix(0.05,0,0,0.05,0,0)" xlink:href="#be"/><use transform="matrix(0.05,0,0,0.05,12.950000000000001,0)" xlink:href="#aG"/><use transform="matrix(0.05,0,0,0.05,22.950000000000003,0)" xlink:href="#bd"/><use transform="matrix(0.05,0,0,0.05,31.950000000000003,0)" xlink:href="#aS"/><use transform="matrix(0.05,0,0,0.05,36.95,0)" xlink:href="#aK"/><use transform="matrix(0.05,0,0,0.05,46.95,0)" xlink:href="#aH"/><use transform="matrix(0.05,0,0,0.05,61.900000000000006,0)" xlink:href="#aN"/><use transform="matrix(0.05,0,0,0.05,71.9,0)" xlink:href="#bb"/></g><path fill="#333" d="M85-194c31 0 48 13 60 33l-1-100h32l1 261h-30c-2-10 0-23-3-31C134-8 116 4 85 4 32 4 16-35 15-94c0-66 23-100 70-100zm9 24c-40 0-46 34-46 75 0 40 6 74 45 74 42 0 51-32 51-76 0-42-9-74-50-73" id="bf"/><g id="s"><use transform="matrix(0.05,0,0,0.05,0,0)" xlink:href="#aP"/><use transform="matrix(0.05,0,0,0.05,5.95,0)" xlink:href="#aR"/><use transform="matrix(0.05,0,0,0.05,15.949999999999998,0)" xlink:href="#bb"/><use transform="matrix(0.05,0,0,0.05,21.9,0)" xlink:href="#aK"/><use transform="matrix(0.05,0,0,0.05,31.899999999999995,0)" xlink:href="#bf"/><use transform="matrix(0.05,0,0,0.05,41.9,0)" xlink:href="#aG"/><use transform="matrix(0.05,0,0,0.05,51.900000000000006,0)" xlink:href="#aM"/><use transform="matrix(0.05,0,0,0.05,60.900000000000006,0)" xlink:href="#aS"/></g><path fill="#333" d="M30 0v-248h33v221h125V0H30" id="bg"/><path fill="#333" d="M18-100v-36l175-74v27L42-118l151 64v27" id="bh"/><path fill="#333" d="M30-248c87 1 191-15 191 75 0 78-77 80-158 76V0H30v-248zm33 125c57 0 124 11 124-50 0-59-68-47-124-48v98" id="bi"/><path fill="#333" d="M18-27v-27l151-64-151-65v-27l175 74v36" id="bj"/><g id="t"><use transform="matrix(0.05,0,0,0.05,0,0)" xlink:href="#bg"/><use transform="matrix(0.05,0,0,0.05,10,0)" xlink:href="#aL"/><use transform="matrix(0.05,0,0,0.05,13.949999999999998,0)" xlink:href="#bd"/><use transform="matrix(0.05,0,0,0.05,22.95,0)" xlink:href="#aS"/><use transform="matrix(0.05,0,0,0.05,27.950000000000003,0)" xlink:href="#bh"/><use transform="matrix(0.05,0,0,0.05,38.45,0)" xlink:href="#bi"/><use transform="matrix(0.05,0,0,0.05,50.45,0)" xlink:href="#bb"/><use transform="matrix(0.05,0,0,0.05,56.400000000000006,0)" xlink:href="#aK"/><use transform="matrix(0.05,0,0,0.05,66.4,0)" xlink:href="#bf"/><use transform="matrix(0.05,0,0,0.05,76.4,0)" xlink:href="#aG"/><use transform="matrix(0.05,0,0,0.05,86.4,0)" xlink:href="#aM"/><use transform="matrix(0.05,0,0,0.05,95.4,0)" xlink:href="#aS"/><use transform="matrix(0.05,0,0,0.05,100.4,0)" xlink:href="#bd"/><use transform="matrix(0.05,0,0,0.05,109.4,0)" xlink:href="#bj"/></g><path fill="#333" d="M141-36C126-15 110 5 73 4 37 3 15-17 15-53c-1-64 63-63 125-63 3-35-9-54-41-54-24 1-41 7-42 31l-33-3c5-37 33-52 76-52 45 0 72 20 72 64v82c-1 20 7 32 28 27v20c-31 9-61-2-59-35zM48-53c0 20 12 33 32 33 41-3 63-29 60-74-43 2-92-5-92 41" id="bk"/><path fill="#333" d="M179-190L93 31C79 59 56 82 12 73V49c39 6 53-20 64-50L1-190h34L92-34l54-156h33" id="bl"/><path fill="#333" d="M-5 72V49h209v23H-5" id="bm"/><g id="u"><use transform="matrix(0.05,0,0,0.05,0,0)" xlink:href="#aP"/><use transform="matrix(0.05,0,0,0.05,5.95,0)" xlink:href="#aR"/><use transform="matrix(0.05,0,0,0.05,15.949999999999998,0)" xlink:href="#bk"/><use transform="matrix(0.05,0,0,0.05,25.950000000000003,0)" xlink:href="#bl"/><use transform="matrix(0.05,0,0,0.05,34.95,0)" xlink:href="#aH"/><use transform="matrix(0.05,0,0,0.05,49.900000000000006,0)" xlink:href="#aN"/><use transform="matrix(0.05,0,0,0.05,59.900000000000006,0)" xlink:href="#aF"/><use transform="matrix(0.05,0,0,0.05,69.9,0)" xlink:href="#aS"/><use transform="matrix(0.05,0,0,0.05,74.9,0)" xlink:href="#bm"/><use transform="matrix(0.05,0,0,0.05,84.9,0)" xlink:href="#bd"/><use transform="matrix(0.05,0,0,0.05,93.9,0)" xlink:href="#aS"/><use transform="matrix(0.05,0,0,0.05,98.9,0)" xlink:href="#bk"/><use transform="matrix(0.05,0,0,0.05,108.9,0)" xlink:href="#aS"/><use transform="matrix(0.05,0,0,0.05,113.9,0)" xlink:href="#aG"/><use transform="matrix(0.05,0,0,0.05,123.9,0)" xlink:href="#bd"/></g><use transform="matrix(0.05,0,0,0.05,0,0)" xlink:href="#aO" id="v"/><path fill="#333" d="M160-131c35 5 61 23 61 61C221 17 115-2 30 0v-248c76 3 177-17 177 60 0 33-19 50-47 57zm-97-11c50-1 110 9 110-42 0-47-63-36-110-37v79zm0 115c55-2 124 14 124-45 0-56-70-42-124-44v89" id="bn"/><path fill="#333" d="M24 0v-261h32V0H24" id="bo"/><g id="w"><use transform="matrix(0.05,0,0,0.05,0,0)" xlink:href="#bn"/><use transform="matrix(0.05,0,0,0.05,12,0)" xlink:href="#aK"/><use transform="matrix(0.05,0,0,0.05,22,0)" xlink:href="#aK"/><use transform="matrix(0.05,0,0,0.05,32,0)" xlink:href="#bo"/><use transform="matrix(0.05,0,0,0.05,35.95,0)" xlink:href="#aN"/><use transform="matrix(0.05,0,0,0.05,45.95,0)" xlink:href="#bk"/><use transform="matrix(0.05,0,0,0.05,55.95,0)" xlink:href="#aF"/></g><g id="x"><use transform="matrix(0.05,0,0,0.05,0,0)" xlink:href="#aP"/><use transform="matrix(0.05,0,0,0.05,5.95,0)" xlink:href="#bd"/><use transform="matrix(0.05,0,0,0.05,14.949999999999998,0)" xlink:href="#aS"/><use transform="matrix(0.05,0,0,0.05,19.95,0)" xlink:href="#bk"/><use transform="matrix(0.05,0,0,0.05,29.950000000000003,0)" xlink:href="#aS"/><use transform="matrix(0.05,0,0,0.05,34.95,0)" xlink:href="#aG"/><use transform="matrix(0.05,0,0,0.05,44.95,0)" xlink:href="#bd"/></g><g id="y"><use transform="matrix(0.05,0,0,0.05,0,0)" xlink:href="#aE"/><use transform="matrix(0.05,0,0,0.05,12,0)" xlink:href="#aF"/><use transform="matrix(0.05,0,0,0.05,22,0)" xlink:href="#aG"/><use transform="matrix(0.05,0,0,0.05,32,0)" xlink:href="#aH"/></g><g id="z"><use transform="matrix(0.05,0,0,0.05,0,0)" xlink:href="#aP"/><use transform="matrix(0.05,0,0,0.05,5.95,0)" xlink:href="#aL"/><use transform="matrix(0.05,0,0,0.05,9.9,0)" xlink:href="#aF"/><use transform="matrix(0.05,0,0,0.05,19.9,0)" xlink:href="#aJ"/><use transform="matrix(0.05,0,0,0.05,28.899999999999995,0)" xlink:href="#aK"/><use transform="matrix(0.05,0,0,0.05,38.9,0)" xlink:href="#aL"/><use transform="matrix(0.05,0,0,0.05,42.85,0)" xlink:href="#aM"/><use transform="matrix(0.05,0,0,0.05,51.85,0)" xlink:href="#aN"/></g><g id="A"><use transform="matrix(0.05,0,0,0.05,0,0)" xlink:href="#aP"/><use transform="matrix(0.05,0,0,0.05,5.95,0)" xlink:href="#aM"/><use transform="matrix(0.05,0,0,0.05,14.949999999999998,0)" xlink:href="#bb"/><use transform="matrix(0.05,0,0,0.05,20.9,0)" xlink:href="#aN"/><use transform="matrix(0.05,0,0,0.05,30.899999999999995,0)" xlink:href="#bk"/><use transform="matrix(0.05,0,0,0.05,40.9,0)" xlink:href="#aS"/><use transform="matrix(0.05,0,0,0.05,45.9,0)" xlink:href="#aN"/><use transform="matrix(0.05,0,0,0.05,55.900000000000006,0)" xlink:href="#bf"/></g><g id="B"><use transform="matrix(0.05,0,0,0.05,0,0)" xlink:href="#aZ"/><use transform="matrix(0.05,0,0,0.05,12.950000000000001,0)" xlink:href="#bk"/><use transform="matrix(0.05,0,0,0.05,22.950000000000003,0)" xlink:href="#aS"/><use transform="matrix(0.05,0,0,0.05,27.950000000000003,0)" xlink:href="#aN"/><use transform="matrix(0.05,0,0,0.05,37.95,0)" xlink:href="#aS"/><use transform="matrix(0.05,0,0,0.05,42.95,0)" xlink:href="#aL"/><use transform="matrix(0.05,0,0,0.05,46.900000000000006,0)" xlink:href="#aH"/><use transform="matrix(0.05,0,0,0.05,61.85,0)" xlink:href="#aN"/></g><path fill="#333" d="M101-234c-31-9-42 10-38 44h38v23H63V0H32v-167H5v-23h27c-7-52 17-82 69-68v24" id="bp"/><g id="C"><use transform="matrix(0.05,0,0,0.05,0,0)" xlink:href="#aP"/><use transform="matrix(0.05,0,0,0.05,5.95,0)" xlink:href="#bo"/><use transform="matrix(0.05,0,0,0.05,9.9,0)" xlink:href="#bk"/><use transform="matrix(0.05,0,0,0.05,19.9,0)" xlink:href="#bd"/><use transform="matrix(0.05,0,0,0.05,28.899999999999995,0)" xlink:href="#aS"/><use transform="matrix(0.05,0,0,0.05,33.9,0)" xlink:href="#bm"/><use transform="matrix(0.05,0,0,0.05,43.9,0)" xlink:href="#aH"/><use transform="matrix(0.05,0,0,0.05,58.85,0)" xlink:href="#aK"/><use transform="matrix(0.05,0,0,0.05,68.85,0)" xlink:href="#bf"/><use transform="matrix(0.05,0,0,0.05,78.85,0)" xlink:href="#aL"/><use transform="matrix(0.05,0,0,0.05,82.8,0)" xlink:href="#bp"/><use transform="matrix(0.05,0,0,0.05,87.8,0)" xlink:href="#aL"/><use transform="matrix(0.05,0,0,0.05,91.75,0)" xlink:href="#aN"/><use transform="matrix(0.05,0,0,0.05,101.75,0)" xlink:href="#bf"/></g><g id="D"><use transform="matrix(0.05,0,0,0.05,0,0)" xlink:href="#aZ"/><use transform="matrix(0.05,0,0,0.05,12.950000000000001,0)" xlink:href="#bk"/><use transform="matrix(0.05,0,0,0.05,22.950000000000003,0)" xlink:href="#aS"/><use transform="matrix(0.05,0,0,0.05,27.950000000000003,0)" xlink:href="#aN"/><use transform="matrix(0.05,0,0,0.05,37.95,0)" xlink:href="#aS"/><use transform="matrix(0.05,0,0,0.05,42.95,0)" xlink:href="#aL"/><use transform="matrix(0.05,0,0,0.05,46.900000000000006,0)" xlink:href="#aH"/><use transform="matrix(0.05,0,0,0.05,61.85,0)" xlink:href="#aN"/></g><path fill="#333" d="M106-169C34-169 62-67 57 0H25v-261h32l-1 103c12-21 28-36 61-36 89 0 53 116 60 194h-32v-121c2-32-8-49-39-48" id="bq"/><path fill="#333" d="M87 75C49 33 22-17 22-94c0-76 28-126 65-167h31c-38 41-64 92-64 168S80 34 118 75H87" id="br"/><g id="E"><use transform="matrix(0.05,0,0,0.05,0,0)" xlink:href="#aP"/><use transform="matrix(0.05,0,0,0.05,5.95,0)" xlink:href="#aM"/><use transform="matrix(0.05,0,0,0.05,14.949999999999998,0)" xlink:href="#bq"/><use transform="matrix(0.05,0,0,0.05,24.95,0)" xlink:href="#bk"/><use transform="matrix(0.05,0,0,0.05,34.95,0)" xlink:href="#aF"/><use transform="matrix(0.05,0,0,0.05,44.95,0)" xlink:href="#bc"/><use transform="matrix(0.05,0,0,0.05,54.95,0)" xlink:href="#aN"/><use transform="matrix(0.05,0,0,0.05,64.95,0)" xlink:href="#ba"/><use transform="matrix(0.05,0,0,0.05,76.95,0)" xlink:href="#aS"/><use transform="matrix(0.05,0,0,0.05,81.95,0)" xlink:href="#bk"/><use transform="matrix(0.05,0,0,0.05,91.95,0)" xlink:href="#aS"/><use transform="matrix(0.05,0,0,0.05,96.95,0)" xlink:href="#aG"/><use transform="matrix(0.05,0,0,0.05,106.95,0)" xlink:href="#bd"/><use transform="matrix(0.05,0,0,0.05,115.95,0)" xlink:href="#br"/><use transform="matrix(0.05,0,0,0.05,121.9,0)" xlink:href="#aE"/><use transform="matrix(0.05,0,0,0.05,133.9,0)" xlink:href="#aF"/><use transform="matrix(0.05,0,0,0.05,143.9,0)" xlink:href="#aG"/><use transform="matrix(0.05,0,0,0.05,153.9,0)" xlink:href="#aH"/></g><path fill="#333" d="M33-261c38 41 65 92 65 168S71 34 33 75H2C39 34 66-17 66-93S39-220 2-261h31" id="bs"/><g id="F"><use transform="matrix(0.05,0,0,0.05,0,0)" xlink:href="#bd"/><use transform="matrix(0.05,0,0,0.05,9,0)" xlink:href="#aS"/><use transform="matrix(0.05,0,0,0.05,14,0)" xlink:href="#bk"/><use transform="matrix(0.05,0,0,0.05,24,0)" xlink:href="#aS"/><use transform="matrix(0.05,0,0,0.05,29,0)" xlink:href="#aG"/><use transform="matrix(0.05,0,0,0.05,39,0)" xlink:href="#bd"/><use transform="matrix(0.05,0,0,0.05,48,0)" xlink:href="#bs"/></g><use transform="matrix(0.05,0,0,0.05,0,0)" xlink:href="#aO" id="G"/><g id="H"><use transform="matrix(0.05,0,0,0.05,0,0)" xlink:href="#aP"/><use transform="matrix(0.05,0,0,0.05,5.95,0)" xlink:href="#aM"/><use transform="matrix(0.05,0,0,0.05,14.949999999999998,0)" xlink:href="#bb"/><use transform="matrix(0.05,0,0,0.05,20.9,0)" xlink:href="#aN"/><use transform="matrix(0.05,0,0,0.05,30.899999999999995,0)" xlink:href="#bk"/><use transform="matrix(0.05,0,0,0.05,40.9,0)" xlink:href="#aS"/><use transform="matrix(0.05,0,0,0.05,45.9,0)" xlink:href="#aN"/><use transform="matrix(0.05,0,0,0.05,55.900000000000006,0)" xlink:href="#aI"/><use transform="matrix(0.05,0,0,0.05,60.900000000000006,0)" xlink:href="#aF"/><use transform="matrix(0.05,0,0,0.05,70.9,0)" xlink:href="#aJ"/><use transform="matrix(0.05,0,0,0.05,79.9,0)" xlink:href="#aK"/><use transform="matrix(0.05,0,0,0.05,89.9,0)" xlink:href="#aL"/><use transform="matrix(0.05,0,0,0.05,93.85000000000001,0)" xlink:href="#aM"/><use transform="matrix(0.05,0,0,0.05,102.85000000000001,0)" xlink:href="#aN"/><use transform="matrix(0.05,0,0,0.05,112.85000000000001,0)" xlink:href="#br"/><use transform="matrix(0.05,0,0,0.05,118.80000000000001,0)" xlink:href="#bs"/></g><g id="I"><use transform="matrix(0.05,0,0,0.05,0,0)" xlink:href="#aI"/><use transform="matrix(0.05,0,0,0.05,5,0)" xlink:href="#aF"/><use transform="matrix(0.05,0,0,0.05,15,0)" xlink:href="#aJ"/><use transform="matrix(0.05,0,0,0.05,24,0)" xlink:href="#aK"/><use transform="matrix(0.05,0,0,0.05,34,0)" xlink:href="#aL"/><use transform="matrix(0.05,0,0,0.05,37.95,0)" xlink:href="#aM"/><use transform="matrix(0.05,0,0,0.05,46.95,0)" xlink:href="#aN"/></g><g id="J"><use transform="matrix(0.05,0,0,0.05,0,0)" xlink:href="#aP"/><use transform="matrix(0.05,0,0,0.05,5.95,0)" xlink:href="#aM"/><use transform="matrix(0.05,0,0,0.05,14.949999999999998,0)" xlink:href="#bq"/><use transform="matrix(0.05,0,0,0.05,24.95,0)" xlink:href="#bk"/><use transform="matrix(0.05,0,0,0.05,34.95,0)" xlink:href="#aF"/><use transform="matrix(0.05,0,0,0.05,44.95,0)" xlink:href="#bc"/><use transform="matrix(0.05,0,0,0.05,54.95,0)" xlink:href="#aN"/><use transform="matrix(0.05,0,0,0.05,64.95,0)" xlink:href="#bi"/><use transform="matrix(0.05,0,0,0.05,76.95,0)" xlink:href="#bk"/><use transform="matrix(0.05,0,0,0.05,86.95,0)" xlink:href="#bl"/><use transform="matrix(0.05,0,0,0.05,95.95,0)" xlink:href="#aH"/><use transform="matrix(0.05,0,0,0.05,110.9,0)" xlink:href="#aN"/><use transform="matrix(0.05,0,0,0.05,120.9,0)" xlink:href="#aF"/><use transform="matrix(0.05,0,0,0.05,130.9,0)" xlink:href="#aS"/><use transform="matrix(0.05,0,0,0.05,135.9,0)" xlink:href="#ba"/><use transform="matrix(0.05,0,0,0.05,147.9,0)" xlink:href="#aS"/><use transform="matrix(0.05,0,0,0.05,152.9,0)" xlink:href="#bk"/><use transform="matrix(0.05,0,0,0.05,162.9,0)" xlink:href="#aS"/><use transform="matrix(0.05,0,0,0.05,167.9,0)" xlink:href="#aG"/><use transform="matrix(0.05,0,0,0.05,177.9,0)" xlink:href="#bd"/><use transform="matrix(0.05,0,0,0.05,186.9,0)" xlink:href="#br"/><use transform="matrix(0.05,0,0,0.05,192.85,0)" xlink:href="#bn"/><use transform="matrix(0.05,0,0,0.05,204.85000000000002,0)" xlink:href="#aK"/><use transform="matrix(0.05,0,0,0.05,214.85000000000002,0)" xlink:href="#aK"/><use transform="matrix(0.05,0,0,0.05,224.85000000000002,0)" xlink:href="#bo"/><use transform="matrix(0.05,0,0,0.05,228.79999999999995,0)" xlink:href="#aN"/><use transform="matrix(0.05,0,0,0.05,238.79999999999995,0)" xlink:href="#bk"/><use transform="matrix(0.05,0,0,0.05,248.79999999999995,0)" xlink:href="#aF"/><use transform="matrix(0.05,0,0,0.05,258.79999999999995,0)" xlink:href="#bs"/></g><path fill="#333" d="M240 0l2-218c-23 76-54 145-80 218h-23L58-218 59 0H30v-248h44l77 211c21-75 51-140 76-211h43V0h-30" id="bt"/><path fill="#333" d="M127-220V0H93v-220H8v-28h204v28h-85" id="bu"/><g id="K"><use transform="matrix(0.05,0,0,0.05,0,0)" xlink:href="#aP"/><use transform="matrix(0.05,0,0,0.05,5.95,0)" xlink:href="#aG"/><use transform="matrix(0.05,0,0,0.05,15.949999999999998,0)" xlink:href="#aR"/><use transform="matrix(0.05,0,0,0.05,25.950000000000003,0)" xlink:href="#bf"/><use transform="matrix(0.05,0,0,0.05,35.95,0)" xlink:href="#bk"/><use transform="matrix(0.05,0,0,0.05,45.95,0)" xlink:href="#aS"/><use transform="matrix(0.05,0,0,0.05,50.95,0)" xlink:href="#aN"/><use transform="matrix(0.05,0,0,0.05,60.95,0)" xlink:href="#bt"/><use transform="matrix(0.05,0,0,0.05,75.9,0)" xlink:href="#aK"/><use transform="matrix(0.05,0,0,0.05,85.9,0)" xlink:href="#bf"/><use transform="matrix(0.05,0,0,0.05,95.9,0)" xlink:href="#aL"/><use transform="matrix(0.05,0,0,0.05,99.85000000000001,0)" xlink:href="#bp"/><use transform="matrix(0.05,0,0,0.05,104.85000000000001,0)" xlink:href="#bl"/><use transform="matrix(0.05,0,0,0.05,113.85000000000001,0)" xlink:href="#aZ"/><use transform="matrix(0.05,0,0,0.05,126.80000000000001,0)" xlink:href="#bk"/><use transform="matrix(0.05,0,0,0.05,136.8,0)" xlink:href="#aS"/><use transform="matrix(0.05,0,0,0.05,141.8,0)" xlink:href="#aN"/><use transform="matrix(0.05,0,0,0.05,151.8,0)" xlink:href="#bu"/><use transform="matrix(0.05,0,0,0.05,162.1,0)" xlink:href="#aL"/><use transform="matrix(0.05,0,0,0.05,166.04999999999998,0)" xlink:href="#aH"/><use transform="matrix(0.05,0,0,0.05,180.99999999999997,0)" xlink:href="#aN"/><use transform="matrix(0.05,0,0,0.05,190.99999999999997,0)" xlink:href="#br"/><use transform="matrix(0.05,0,0,0.05,196.94999999999996,0)" xlink:href="#bs"/></g><g id="L"><use transform="matrix(0.05,0,0,0.05,0,0)" xlink:href="#bn"/><use transform="matrix(0.05,0,0,0.05,12,0)" xlink:href="#aK"/><use transform="matrix(0.05,0,0,0.05,22,0)" xlink:href="#aK"/><use transform="matrix(0.05,0,0,0.05,32,0)" xlink:href="#bo"/><use transform="matrix(0.05,0,0,0.05,35.95,0)" xlink:href="#aN"/><use transform="matrix(0.05,0,0,0.05,45.95,0)" xlink:href="#bk"/><use transform="matrix(0.05,0,0,0.05,55.95,0)" xlink:href="#aF"/></g><path fill="#a9afb8" d="M24 0v-248h52V0H24" id="bv"/><path fill="#a9afb8" d="M140-251c80 0 125 45 125 126S219 4 139 4C58 4 15-44 15-125s44-126 125-126zm-1 214c52 0 73-35 73-88 0-50-21-86-72-86-52 0-73 35-73 86s22 88 72 88" id="bw"/><g id="M"><use transform="matrix(0.0728395061728395,0,0,0.0728395061728395,0,0)" xlink:href="#bv"/><use transform="matrix(0.0728395061728395,0,0,0.0728395061728395,7.28395061728395,0)" xlink:href="#bw"/></g><path fill="#a9afb8" d="M88-194c31-1 46 15 58 34l-1-101h50l1 261h-48c-2-10 0-23-3-31C134-8 116 4 84 4 32 4 16-41 15-95c0-56 19-97 73-99zm17 164c33 0 40-30 41-66 1-37-9-64-41-64s-38 30-39 65c0 43 13 65 39 65" id="bx"/><path fill="#a9afb8" d="M25-224v-37h50v37H25zM25 0v-190h50V0H25" id="by"/><path fill="#a9afb8" d="M133-34C117-15 103 5 69 4 32 3 11-16 11-54c-1-60 55-63 116-61 1-26-3-47-28-47-18 1-26 9-28 27l-52-2c7-38 36-58 82-57s74 22 75 68l1 82c-1 14 12 18 25 15v27c-30 8-71 5-69-32zm-48 3c29 0 43-24 42-57-32 0-66-3-65 30 0 17 8 27 23 27" id="bz"/><path fill="#a9afb8" d="M195-6C206 82 75 100 31 46c-4-6-6-13-8-21l49-6c3 16 16 24 34 25 40 0 42-37 40-79-11 22-30 35-61 35-53 0-70-43-70-97 0-56 18-96 73-97 30 0 46 14 59 34l2-30h47zm-90-29c32 0 41-27 41-63 0-35-9-62-40-62-32 0-39 29-40 63 0 36 9 62 39 62" id="bA"/><path fill="#a9afb8" d="M135-150c-39-12-60 13-60 57V0H25l-1-190h47c2 13-1 29 3 40 6-28 27-53 61-41v41" id="bB"/><path fill="#a9afb8" d="M220-157c-53 9-28 100-34 157h-49v-107c1-27-5-49-29-50C55-147 81-57 75 0H25l-1-190h47c2 12-1 28 3 38 10-53 101-56 108 0 13-22 24-43 59-42 82 1 51 116 57 194h-49v-107c-1-25-5-48-29-50" id="bC"/><g id="N"><use transform="matrix(0.0728395061728395,0,0,0.0728395061728395,0,0)" xlink:href="#bx"/><use transform="matrix(0.0728395061728395,0,0,0.0728395061728395,15.95185185185185,0)" xlink:href="#by"/><use transform="matrix(0.0728395061728395,0,0,0.0728395061728395,23.235802469135802,0)" xlink:href="#bz"/><use transform="matrix(0.0728395061728395,0,0,0.0728395061728395,37.803703703703704,0)" xlink:href="#bA"/><use transform="matrix(0.0728395061728395,0,0,0.0728395061728395,53.75555555555555,0)" xlink:href="#bB"/><use transform="matrix(0.0728395061728395,0,0,0.0728395061728395,63.953086419753085,0)" xlink:href="#bz"/><use transform="matrix(0.0728395061728395,0,0,0.0728395061728395,78.52098765432099,0)" xlink:href="#bC"/></g><path fill="#a9afb8" d="M238-95c0 69-44 99-111 99C63 4 22-25 22-93v-155h51v151c-1 38 19 59 55 60 90 1 49-130 58-211h52v153" id="bD"/><path fill="#a9afb8" d="M230 0l2-204L168 0h-37L68-204 70 0H24v-248h70l56 185 57-185h69V0h-46" id="bE"/><path fill="#a9afb8" d="M24 0v-248h52v208h133V0H24" id="bF"/><g id="O"><use transform="matrix(0.0728395061728395,0,0,0.0728395061728395,0,0)" xlink:href="#bD"/><use transform="matrix(0.0728395061728395,0,0,0.0728395061728395,18.86543209876543,0)" xlink:href="#bE"/><use transform="matrix(0.0728395061728395,0,0,0.0728395061728395,40.644444444444446,0)" xlink:href="#bF"/></g><path fill="#a9afb8" d="M147 0L96-86 75-71V0H25v-261h50v150l67-79h53l-66 74L201 0h-54" id="bG"/><path fill="#a9afb8" d="M25 0v-261h50V0H25" id="bH"/><path fill="#a9afb8" d="M137-138c1-29-70-34-71-4 15 46 118 7 119 86 1 83-164 76-172 9l43-7c4 19 20 25 44 25 33 8 57-30 24-41C81-84 22-81 20-136c-2-80 154-74 161-7" id="bI"/><g id="P"><use transform="matrix(0.0728395061728395,0,0,0.0728395061728395,0,0)" xlink:href="#bG"/><use transform="matrix(0.0728395061728395,0,0,0.0728395061728395,14.5679012345679,0)" xlink:href="#bH"/><use transform="matrix(0.0728395061728395,0,0,0.0728395061728395,21.85185185185185,0)" xlink:href="#bz"/><use transform="matrix(0.0728395061728395,0,0,0.0728395061728395,36.41975308641975,0)" xlink:href="#bI"/></g><path fill="#a9afb8" d="M169-182c-1-43-94-46-97-3 18 66 151 10 154 114 3 95-165 93-204 36-6-8-10-19-12-30l50-8c3 46 112 56 116 5-17-69-150-10-154-114-4-87 153-88 188-35 5 8 8 18 10 28" id="bJ"/><path fill="#a9afb8" d="M123 10C108 53 80 86 19 72V37c35 8 53-11 59-39L3-190h52l48 148c12-52 28-100 44-148h51" id="bK"/><path fill="#a9afb8" d="M115-3C79 11 28 4 28-45v-112H4v-33h27l15-45h31v45h36v33H77v99c-1 23 16 31 38 25v30" id="bL"/><path fill="#a9afb8" d="M185-48c-13 30-37 53-82 52C43 2 14-33 14-96s30-98 90-98c62 0 83 45 84 108H66c0 31 8 55 39 56 18 0 30-7 34-22zm-45-69c5-46-57-63-70-21-2 6-4 13-4 21h74" id="bM"/><g id="Q"><use transform="matrix(0.0728395061728395,0,0,0.0728395061728395,0,0)" xlink:href="#bJ"/><use transform="matrix(0.0728395061728395,0,0,0.0728395061728395,17.48148148148148,0)" xlink:href="#bK"/><use transform="matrix(0.0728395061728395,0,0,0.0728395061728395,32.04938271604938,0)" xlink:href="#bI"/><use transform="matrix(0.0728395061728395,0,0,0.0728395061728395,46.61728395061728,0)" xlink:href="#bL"/><use transform="matrix(0.0728395061728395,0,0,0.0728395061728395,55.28518518518518,0)" xlink:href="#bM"/><use transform="matrix(0.0728395061728395,0,0,0.0728395061728395,69.85308641975308,0)" xlink:href="#bC"/></g><path fill="#a9afb8" d="M210 0H11v-37l134-170H24v-41h178v36L68-41h142V0" id="bN"/><path fill="#a9afb8" d="M12 0v-35l95-120H19v-35h142v35L67-36h103V0H12" id="bO"/><path fill="#a9afb8" d="M133-34C117-15 103 5 69 4 32 3 11-16 11-54c-1-60 55-63 116-61 1-26-3-47-28-47-18 1-26 9-28 27l-52-2c7-38 36-58 82-57s74 22 75 68l1 82c-1 14 12 18 25 15v27c-30 8-71 5-69-32zm-48 3c29 0 43-24 42-57-32 0-66-3-65 30 0 17 8 27 23 27zm67 64c0 19 24 19 37 12v24c-27 13-71 4-69-29 2-30 18-49 55-44-11 8-22 21-23 37" id="bP"/><path fill="#a9afb8" d="M135-194c87-1 58 113 63 194h-50c-7-57 23-157-34-157-59 0-34 97-39 157H25l-1-190h47c2 12-1 28 3 38 12-26 28-41 61-42" id="bQ"/><g id="R"><use transform="matrix(0.0728395061728395,0,0,0.0728395061728395,0,0)" xlink:href="#bN"/><use transform="matrix(0.0728395061728395,0,0,0.0728395061728395,15.95185185185185,0)" xlink:href="#bz"/><use transform="matrix(0.0728395061728395,0,0,0.0728395061728395,30.51975308641975,0)" xlink:href="#bB"/><use transform="matrix(0.0728395061728395,0,0,0.0728395061728395,40.717283950617286,0)" xlink:href="#bO"/><use transform="matrix(0.0728395061728395,0,0,0.0728395061728395,53.828395061728386,0)" xlink:href="#bP"/><use transform="matrix(0.0728395061728395,0,0,0.0728395061728395,68.39629629629628,0)" xlink:href="#bx"/><use transform="matrix(0.0728395061728395,0,0,0.0728395061728395,84.34814814814814,0)" xlink:href="#bO"/><use transform="matrix(0.0728395061728395,0,0,0.0728395061728395,97.45925925925926,0)" xlink:href="#bz"/><use transform="matrix(0.0728395061728395,0,0,0.0728395061728395,112.02716049382715,0)" xlink:href="#bQ"/><use transform="matrix(0.0728395061728395,0,0,0.0728395061728395,127.97901234567901,0)" xlink:href="#by"/><use transform="matrix(0.0728395061728395,0,0,0.0728395061728395,135.26296296296297,0)" xlink:href="#bz"/></g><path fill="#a9afb8" d="M110-194c64 0 96 36 96 99 0 64-35 99-97 99-61 0-95-36-95-99 0-62 34-99 96-99zm-1 164c35 0 45-28 45-65 0-40-10-65-43-65-34 0-45 26-45 65 0 36 10 65 43 65zM81-208v-5l45-51h45v8l-60 48H81" id="bR"/><path fill="#a9afb8" d="M231 0h-52l-39-155L100 0H48L-1-190h46L77-45c9-52 24-97 36-145h53l37 145 32-145h46" id="bS"/><g id="S"><use transform="matrix(0.0728395061728395,0,0,0.0728395061728395,0,0)" xlink:href="#bN"/><use transform="matrix(0.0728395061728395,0,0,0.0728395061728395,15.95185185185185,0)" xlink:href="#bz"/><use transform="matrix(0.0728395061728395,0,0,0.0728395061728395,30.51975308641975,0)" xlink:href="#bC"/><use transform="matrix(0.0728395061728395,0,0,0.0728395061728395,53.82839506172839,0)" xlink:href="#bR"/><use transform="matrix(0.0728395061728395,0,0,0.0728395061728395,69.78024691358024,0)" xlink:href="#bS"/><use transform="matrix(0.0728395061728395,0,0,0.0728395061728395,90.1753086419753,0)" xlink:href="#by"/><use transform="matrix(0.0728395061728395,0,0,0.0728395061728395,97.45925925925926,0)" xlink:href="#bM"/><use transform="matrix(0.0728395061728395,0,0,0.0728395061728395,112.02716049382715,0)" xlink:href="#bQ"/><use transform="matrix(0.0728395061728395,0,0,0.0728395061728395,127.97901234567901,0)" xlink:href="#by"/><use transform="matrix(0.0728395061728395,0,0,0.0728395061728395,135.26296296296297,0)" xlink:href="#bz"/><use transform="matrix(0.0728395061728395,0,0,0.0728395061728395,149.83086419753087,0)" xlink:href="#bC"/><use transform="matrix(0.0728395061728395,0,0,0.0728395061728395,173.1395061728395,0)" xlink:href="#by"/></g><path fill="#a9afb8" d="M30-248c87 1 191-15 191 75 0 78-77 80-158 76V0H30v-248zm33 125c57 0 124 11 124-50 0-59-68-47-124-48v98" id="bT"/><path fill="#a9afb8" d="M141-36C126-15 110 5 73 4 37 3 15-17 15-53c-1-64 63-63 125-63 3-35-9-54-41-54-24 1-41 7-42 31l-33-3c5-37 33-52 76-52 45 0 72 20 72 64v82c-1 20 7 32 28 27v20c-31 9-61-2-59-35zM48-53c0 20 12 33 32 33 41-3 63-29 60-74-43 2-92-5-92 41" id="bU"/><path fill="#a9afb8" d="M59-47c-2 24 18 29 38 22v24C64 9 27 4 27-40v-127H5v-23h24l9-43h21v43h35v23H59v120" id="bV"/><path fill="#a9afb8" d="M114-163C36-179 61-72 57 0H25l-1-190h30c1 12-1 29 2 39 6-27 23-49 58-41v29" id="bW"/><path fill="#a9afb8" d="M179-190L93 31C79 59 56 82 12 73V49c39 6 53-20 64-50L1-190h34L92-34l54-156h33" id="bX"/><path fill="#a9afb8" d="M143 0L79-87 56-68V0H24v-261h32v163l83-92h37l-77 82L181 0h-38" id="bY"/><g id="U"><use transform="matrix(0.04248971193415638,0,0,0.04248971193415638,0,0)" xlink:href="#bT"/><use transform="matrix(0.04248971193415638,0,0,0.04248971193415638,10.19753086419753,0)" xlink:href="#bU"/><use transform="matrix(0.04248971193415638,0,0,0.04248971193415638,18.695473251028805,0)" xlink:href="#bV"/><use transform="matrix(0.04248971193415638,0,0,0.04248971193415638,22.944444444444443,0)" xlink:href="#bW"/><use transform="matrix(0.04248971193415638,0,0,0.04248971193415638,28.000720164609053,0)" xlink:href="#bX"/><use transform="matrix(0.04248971193415638,0,0,0.04248971193415638,35.6488683127572,0)" xlink:href="#bY"/></g><path fill="#a9afb8" d="M30-248c118-7 216 8 213 122C240-48 200 0 122 0H30v-248zM63-27c89 8 146-16 146-99s-60-101-146-95v194" id="bZ"/><path fill="#a9afb8" d="M117-194c89-4 53 116 60 194h-32v-121c0-31-8-49-39-48C34-167 62-67 57 0H25l-1-190h30c1 10-1 24 2 32 11-22 29-35 61-36" id="ca"/><path fill="#a9afb8" d="M85-194c31 0 48 13 60 33l-1-100h32l1 261h-30c-2-10 0-23-3-31C134-8 116 4 85 4 32 4 16-35 15-94c0-66 23-100 70-100zm9 24c-40 0-46 34-46 75 0 40 6 74 45 74 42 0 51-32 51-76 0-42-9-74-50-73" id="cb"/><path fill="#a9afb8" d="M24 0v-95L3-83v-28l21-12v-138h32v120l22-13v28l-22 12V0H24" id="cc"/><g id="V"><use transform="matrix(0.04248971193415638,0,0,0.04248971193415638,0,0)" xlink:href="#bZ"/><use transform="matrix(0.04248971193415638,0,0,0.04248971193415638,11.004835390946502,0)" xlink:href="#bX"/><use transform="matrix(0.04248971193415638,0,0,0.04248971193415638,18.65298353909465,0)" xlink:href="#ca"/><use transform="matrix(0.04248971193415638,0,0,0.04248971193415638,27.150925925925925,0)" xlink:href="#cb"/><use transform="matrix(0.04248971193415638,0,0,0.04248971193415638,35.6488683127572,0)" xlink:href="#bU"/><use transform="matrix(0.04248971193415638,0,0,0.04248971193415638,44.14681069958848,0)" xlink:href="#cc"/></g><path fill="#a9afb8" d="M68-38c1 34 0 65-14 84H32c9-13 17-26 17-46H33v-38h35" id="cd"/><use transform="matrix(0.04248971193415638,0,0,0.04248971193415638,0,0)" xlink:href="#cd" id="W"/><path fill="#a9afb8" d="M24-231v-30h32v30H24zM24 0v-190h32V0H24" id="ce"/><path fill="#a9afb8" d="M100-194c62-1 85 37 85 99 1 63-27 99-86 99S16-35 15-95c0-66 28-99 85-99zM99-20c44 1 53-31 53-75 0-43-8-75-51-75s-53 32-53 75 10 74 51 75" id="cf"/><g id="X"><use transform="matrix(0.04248971193415638,0,0,0.04248971193415638,0,0)" xlink:href="#bT"/><use transform="matrix(0.04248971193415638,0,0,0.04248971193415638,10.19753086419753,0)" xlink:href="#ce"/><use transform="matrix(0.04248971193415638,0,0,0.04248971193415638,13.554218106995881,0)" xlink:href="#cf"/><use transform="matrix(0.04248971193415638,0,0,0.04248971193415638,22.05216049382716,0)" xlink:href="#bV"/><use transform="matrix(0.04248971193415638,0,0,0.04248971193415638,26.301131687242798,0)" xlink:href="#bW"/></g><path fill="#a9afb8" d="M84 4C-5 8 30-112 23-190h32v120c0 31 7 50 39 49 72-2 45-101 50-169h31l1 190h-30c-1-10 1-25-2-33-11 22-28 36-60 37" id="cg"/><path fill="#a9afb8" d="M177-190C167-65 218 103 67 71c-23-6-38-20-44-43l32-5c15 47 100 32 89-28v-30C133-14 115 1 83 1 29 1 15-40 15-95c0-56 16-97 71-98 29-1 48 16 59 35 1-10 0-23 2-32h30zM94-22c36 0 50-32 50-73 0-42-14-75-50-75-39 0-46 34-46 75s6 73 46 73" id="ch"/><path fill="#a9afb8" d="M135-143c-3-34-86-38-87 0 15 53 115 12 119 90S17 21 10-45l28-5c4 36 97 45 98 0-10-56-113-15-118-90-4-57 82-63 122-42 12 7 21 19 24 35" id="ci"/><path fill="#a9afb8" d="M9 0v-24l116-142H16v-24h144v24L44-24h123V0H9" id="cj"/><g id="Y"><use transform="matrix(0.04248971193415638,0,0,0.04248971193415638,0,0)" xlink:href="#bZ"/><use transform="matrix(0.04248971193415638,0,0,0.04248971193415638,11.004835390946502,0)" xlink:href="#cc"/><use transform="matrix(0.04248971193415638,0,0,0.04248971193415638,14.361522633744855,0)" xlink:href="#cg"/><use transform="matrix(0.04248971193415638,0,0,0.04248971193415638,22.85946502057613,0)" xlink:href="#ch"/><use transform="matrix(0.04248971193415638,0,0,0.04248971193415638,31.357407407407408,0)" xlink:href="#cf"/><use transform="matrix(0.04248971193415638,0,0,0.04248971193415638,39.855349794238684,0)" xlink:href="#ci"/><use transform="matrix(0.04248971193415638,0,0,0.04248971193415638,47.50349794238683,0)" xlink:href="#cj"/><use transform="matrix(0.04248971193415638,0,0,0.04248971193415638,55.151646090534975,0)" xlink:href="#cd"/></g><path fill="#a9afb8" d="M194 0L95-120 63-95V0H30v-248h33v124l119-124h40L117-140 236 0h-42" id="ck"/><path fill="#a9afb8" d="M24 0v-261h32V0H24" id="cl"/><g id="Z"><use transform="matrix(0.04248971193415638,0,0,0.04248971193415638,0,0)" xlink:href="#ck"/><use transform="matrix(0.04248971193415638,0,0,0.04248971193415638,10.19753086419753,0)" xlink:href="#bU"/><use transform="matrix(0.04248971193415638,0,0,0.04248971193415638,18.695473251028805,0)" xlink:href="#bW"/><use transform="matrix(0.04248971193415638,0,0,0.04248971193415638,23.751748971193415,0)" xlink:href="#cf"/><use transform="matrix(0.04248971193415638,0,0,0.04248971193415638,32.24969135802469,0)" xlink:href="#cl"/></g><path fill="#a9afb8" d="M160-131c35 5 61 23 61 61C221 17 115-2 30 0v-248c76 3 177-17 177 60 0 33-19 50-47 57zm-97-11c50-1 110 9 110-42 0-47-63-36-110-37v79zm0 115c55-2 124 14 124-45 0-56-70-42-124-44v89" id="cm"/><g id="aa"><use transform="matrix(0.04248971193415638,0,0,0.04248971193415638,0,0)" xlink:href="#cm"/><use transform="matrix(0.04248971193415638,0,0,0.04248971193415638,10.19753086419753,0)" xlink:href="#cg"/><use transform="matrix(0.04248971193415638,0,0,0.04248971193415638,18.695473251028805,0)" xlink:href="#bW"/><use transform="matrix(0.04248971193415638,0,0,0.04248971193415638,23.751748971193415,0)" xlink:href="#bX"/><use transform="matrix(0.04248971193415638,0,0,0.04248971193415638,30.25267489711934,0)" xlink:href="#cd"/></g><path fill="#a9afb8" d="M210-169c-67 3-38 105-44 169h-31v-121c0-29-5-50-35-48C34-165 62-65 56 0H25l-1-190h30c1 10-1 24 2 32 10-44 99-50 107 0 11-21 27-35 58-36 85-2 47 119 55 194h-31v-121c0-29-5-49-35-48" id="cn"/><g id="ab"><use transform="matrix(0.04248971193415638,0,0,0.04248971193415638,0,0)" xlink:href="#ck"/><use transform="matrix(0.04248971193415638,0,0,0.04248971193415638,10.19753086419753,0)" xlink:href="#bU"/><use transform="matrix(0.04248971193415638,0,0,0.04248971193415638,18.695473251028805,0)" xlink:href="#cn"/><use transform="matrix(0.04248971193415638,0,0,0.04248971193415638,31.399897119341556,0)" xlink:href="#ce"/><use transform="matrix(0.04248971193415638,0,0,0.04248971193415638,34.75658436213991,0)" xlink:href="#cl"/></g><path fill="#a9afb8" d="M63-220v92h138v28H63V0H30v-248h175v28H63" id="co"/><g id="ac"><use transform="matrix(0.04248971193415638,0,0,0.04248971193415638,0,0)" xlink:href="#co"/><use transform="matrix(0.04248971193415638,0,0,0.04248971193415638,9.305246913580246,0)" xlink:href="#ce"/><use transform="matrix(0.04248971193415638,0,0,0.04248971193415638,12.6619341563786,0)" xlink:href="#cl"/><use transform="matrix(0.04248971193415638,0,0,0.04248971193415638,16.018621399176954,0)" xlink:href="#bU"/><use transform="matrix(0.04248971193415638,0,0,0.04248971193415638,24.51656378600823,0)" xlink:href="#bW"/></g><path fill="#a9afb8" d="M32 76v-337h29V76H32" id="cp"/><use transform="matrix(0.04248971193415638,0,0,0.04248971193415638,0,0)" xlink:href="#cp" id="ad"/><path fill="#a9afb8" d="M140-251c81 0 123 46 123 126C263-46 219 4 140 4 59 4 17-45 17-125s42-126 123-126zm0 227c63 0 89-41 89-101s-29-99-89-99c-61 0-89 39-89 99S79-25 140-24" id="cq"/><path fill="#a9afb8" d="M96-169c-40 0-48 33-48 73s9 75 48 75c24 0 41-14 43-38l32 2c-6 37-31 61-74 61-59 0-76-41-82-99-10-93 101-131 147-64 4 7 5 14 7 22l-32 3c-4-21-16-35-41-35" id="cr"/><path fill="#a9afb8" d="M115-194c53 0 69 39 70 98 0 66-23 100-70 100C84 3 66-7 56-30L54 0H23l1-261h32v101c10-23 28-34 59-34zm-8 174c40 0 45-34 45-75 0-40-5-75-45-74-42 0-51 32-51 76 0 43 10 73 51 73" id="cs"/><path fill="#a9afb8" d="M100-194c63 0 86 42 84 106H49c0 40 14 67 53 68 26 1 43-12 49-29l28 8c-11 28-37 45-77 45C44 4 14-33 15-96c1-61 26-98 85-98zm52 81c6-60-76-77-97-28-3 7-6 17-6 28h103" id="ct"/><g id="ae"><use transform="matrix(0.04248971193415638,0,0,0.04248971193415638,0,0)" xlink:href="#cq"/><use transform="matrix(0.04248971193415638,0,0,0.04248971193415638,11.897119341563785,0)" xlink:href="#cr"/><use transform="matrix(0.04248971193415638,0,0,0.04248971193415638,19.545267489711932,0)" xlink:href="#bV"/><use transform="matrix(0.04248971193415638,0,0,0.04248971193415638,23.79423868312757,0)" xlink:href="#cf"/><use transform="matrix(0.04248971193415638,0,0,0.04248971193415638,32.29218106995884,0)" xlink:href="#cs"/><use transform="matrix(0.04248971193415638,0,0,0.04248971193415638,40.79012345679012,0)" xlink:href="#ct"/><use transform="matrix(0.04248971193415638,0,0,0.04248971193415638,49.288065843621396,0)" xlink:href="#bW"/></g><path fill="#a9afb8" d="M134-131c28 9 52 24 51 62-1 50-34 73-85 73S17-19 16-69c0-36 21-54 49-61-75-25-45-126 34-121 46 3 78 18 79 63 0 33-17 51-44 57zm-34-11c31 1 46-15 46-44 0-28-17-43-47-42-29 0-46 13-45 42 1 28 16 44 46 44zm1 122c35 0 51-18 51-52 0-30-18-46-53-46-33 0-51 17-51 47 0 34 19 51 53 51" id="cu"/><g id="af"><use transform="matrix(0.04248971193415638,0,0,0.04248971193415638,0,0)" xlink:href="#cu"/><use transform="matrix(0.04248971193415638,0,0,0.04248971193415638,8.497942386831275,0)" xlink:href="#cd"/></g><path fill="#a9afb8" d="M101-251c82-7 93 87 43 132L82-64C71-53 59-42 53-27h129V0H18c2-99 128-94 128-182 0-28-16-43-45-43s-46 15-49 41l-32-3c6-41 34-60 81-64" id="cv"/><path fill="#a9afb8" d="M101-251c68 0 85 55 85 127S166 4 100 4C33 4 14-52 14-124c0-73 17-127 87-127zm-1 229c47 0 54-49 54-102s-4-102-53-102c-51 0-55 48-55 102 0 53 5 102 54 102" id="cw"/><g id="ag"><use transform="matrix(0.04248971193415638,0,0,0.04248971193415638,0,0)" xlink:href="#cv"/><use transform="matrix(0.04248971193415638,0,0,0.04248971193415638,8.497942386831275,0)" xlink:href="#cw"/><use transform="matrix(0.04248971193415638,0,0,0.04248971193415638,16.99588477366255,0)" xlink:href="#cv"/><use transform="matrix(0.04248971193415638,0,0,0.04248971193415638,25.493827160493822,0)" xlink:href="#cw"/></g><path fill="#333" d="M205 0l-28-72H64L36 0H1l101-248h38L239 0h-34zm-38-99l-47-123c-12 45-31 82-46 123h93" id="cx"/><path fill="#333" d="M115-194c53 0 69 39 70 98 0 66-23 100-70 100C84 3 66-7 56-30L54 0H23l1-261h32v101c10-23 28-34 59-34zm-8 174c40 0 45-34 45-75 0-40-5-75-45-74-42 0-51 32-51 76 0 43 10 73 51 73" id="cy"/><g id="ah"><use transform="matrix(0.05,0,0,0.05,0,0)" xlink:href="#cx"/><use transform="matrix(0.05,0,0,0.05,12,0)" xlink:href="#cy"/><use transform="matrix(0.05,0,0,0.05,22,0)" xlink:href="#bd"/><use transform="matrix(0.05,0,0,0.05,31,0)" xlink:href="#aS"/><use transform="matrix(0.05,0,0,0.05,36,0)" xlink:href="#bb"/><use transform="matrix(0.05,0,0,0.05,41.95,0)" xlink:href="#bk"/><use transform="matrix(0.05,0,0,0.05,51.95,0)" xlink:href="#aM"/><use transform="matrix(0.05,0,0,0.05,60.95,0)" xlink:href="#aS"/></g><g id="ai"><use transform="matrix(0.05,0,0,0.05,0,0)" xlink:href="#be"/><use transform="matrix(0.05,0,0,0.05,12.950000000000001,0)" xlink:href="#aG"/><use transform="matrix(0.05,0,0,0.05,22.950000000000003,0)" xlink:href="#bd"/><use transform="matrix(0.05,0,0,0.05,31.950000000000003,0)" xlink:href="#aS"/><use transform="matrix(0.05,0,0,0.05,36.95,0)" xlink:href="#aK"/><use transform="matrix(0.05,0,0,0.05,46.95,0)" xlink:href="#aH"/><use transform="matrix(0.05,0,0,0.05,61.900000000000006,0)" xlink:href="#aN"/><use transform="matrix(0.05,0,0,0.05,71.9,0)" xlink:href="#bb"/></g><g id="aj"><use transform="matrix(0.05,0,0,0.05,0,0)" xlink:href="#bi"/><use transform="matrix(0.05,0,0,0.05,12,0)" xlink:href="#bb"/><use transform="matrix(0.05,0,0,0.05,17.95,0)" xlink:href="#aK"/><use transform="matrix(0.05,0,0,0.05,27.950000000000003,0)" xlink:href="#bf"/><use transform="matrix(0.05,0,0,0.05,37.95,0)" xlink:href="#aG"/><use transform="matrix(0.05,0,0,0.05,47.95,0)" xlink:href="#aM"/><use transform="matrix(0.05,0,0,0.05,56.95,0)" xlink:href="#aS"/></g><g id="ak"><use transform="matrix(0.05,0,0,0.05,0,0)" xlink:href="#aI"/><use transform="matrix(0.05,0,0,0.05,5,0)" xlink:href="#aF"/><use transform="matrix(0.05,0,0,0.05,15,0)" xlink:href="#aJ"/><use transform="matrix(0.05,0,0,0.05,24,0)" xlink:href="#aK"/><use transform="matrix(0.05,0,0,0.05,34,0)" xlink:href="#aL"/><use transform="matrix(0.05,0,0,0.05,37.95,0)" xlink:href="#aM"/><use transform="matrix(0.05,0,0,0.05,46.95,0)" xlink:href="#aN"/></g></defs></g></svg>