<svg xmlns="http://www.w3.org/2000/svg" xmlns:xlink="http://www.w3.org/1999/xlink" xmlns:lucid="lucid" width="1003.04" height="696.78"><g transform="translate(0 0)" lucid:page-tab-id="BjzKG-x~l5Op"><path d="M0 0h200v40H0z" fill="none"/><use xlink:href="#a" transform="matrix(1,0,0,1,0,0) translate(81.05 23.6)"/><path d="M101 300h299v200H101z" fill="#fff"/><path d="M101 300h299v200H101zM101 340h299M231.67 340v160" stroke="#333" stroke-width="2" fill="none"/><use xlink:href="#b" transform="matrix(1,0,0,1,111,300.00000000000006) translate(116.55 23.6)"/><use xlink:href="#c" transform="matrix(1,0,0,1,106,342.50000000000006) translate(51.525 17.1)"/><use xlink:href="#d" transform="matrix(1,0,0,1,236.66666666666666,342.50000000000006) translate(51.525 17.1)"/><use xlink:href="#e" transform="matrix(1,0,0,1,106,374.50000000000006) translate(21.025 17.1)"/><use xlink:href="#d" transform="matrix(1,0,0,1,236.66666666666666,374.50000000000006) translate(51.525 17.1)"/><use xlink:href="#f" transform="matrix(1,0,0,1,106,406.50000000000006) translate(28.549999999999997 17.1)"/><use xlink:href="#g" transform="matrix(1,0,0,1,236.66666666666666,406.50000000000006) translate(40.925 17.1)"/><use xlink:href="#h" transform="matrix(1,0,0,1,106,438.50000000000006) translate(4.574999999999996 17.1)"/><use xlink:href="#i" transform="matrix(1,0,0,1,236.66666666666666,438.50000000000006) translate(40.925 17.1)"/><use xlink:href="#j" transform="matrix(1,0,0,1,106,470.50000000000006) translate(7.599999999999994 17.1)"/><use xlink:href="#k" transform="matrix(1,0,0,1,236.66666666666666,470.50000000000006) translate(51.525 17.1)"/><path d="M700 120h200v136H700z" fill="#fff"/><path d="M700 120h200v136H700zM700 160h200M760 160v96" stroke="#333" stroke-width="2" fill="none"/><use xlink:href="#l" transform="matrix(1,0,0,1,710,120) translate(59.025 23.6)"/><use xlink:href="#c" transform="matrix(1,0,0,1,705,162.5) translate(16.025 17.1)"/><use xlink:href="#d" transform="matrix(1,0,0,1,765,162.5) translate(37.025 17.1)"/><use xlink:href="#m" transform="matrix(1,0,0,1,705,194.5) translate(1.0499999999999972 17.1)"/><use xlink:href="#n" transform="matrix(1,0,0,1,765,194.5) translate(41.55 17.1)"/><use xlink:href="#o" transform="matrix(1,0,0,1,705,226.5) translate(4.550000000000001 17.1)"/><use xlink:href="#p" transform="matrix(1,0,0,1,765,226.5) translate(45.05 17.1)"/><path d="M101 580h200v104H101z" fill="#fff"/><path d="M101 580h200v104H101zM101 620h200M161 620v64" stroke="#333" stroke-width="2" fill="none"/><use xlink:href="#q" transform="matrix(1,0,0,1,111,580) translate(51.074999999999996 23.6)"/><use xlink:href="#c" transform="matrix(1,0,0,1,106,622.5) translate(16.025 17.1)"/><use xlink:href="#d" transform="matrix(1,0,0,1,166,622.5) translate(37.025 17.1)"/><use xlink:href="#m" transform="matrix(1,0,0,1,106,654.5) translate(1.0499999999999972 17.1)"/><use xlink:href="#n" transform="matrix(1,0,0,1,166,654.5) translate(41.55 17.1)"/><path d="M500 300h400v136H500z" fill="#fff"/><path d="M500 300h400v136H500zM500 340h400M604 340v96" stroke="#333" stroke-width="2" fill="none"/><use xlink:href="#r" transform="matrix(1,0,0,1,510,300) translate(137.125 23.6)"/><use xlink:href="#s" transform="matrix(1,0,0,1,510,300) translate(188.025 23.6)"/><use xlink:href="#t" transform="matrix(1,0,0,1,505,342.5) translate(10.074999999999996 17.1)"/><use xlink:href="#d" transform="matrix(1,0,0,1,609,342.5) translate(115.025 17.1)"/><use xlink:href="#u" transform="matrix(1,0,0,1,505,374.5) translate(2.049999999999997 17.1)"/><use xlink:href="#d" transform="matrix(1,0,0,1,609,374.5) translate(115.025 17.1)"/><use xlink:href="#v" transform="matrix(1,0,0,1,505,406.5) translate(13.524999999999999 17.1)"/><use xlink:href="#k" transform="matrix(1,0,0,1,609,406.5) translate(115.025 17.1)"/><path d="M101 100h200v104H101z" fill="#fff"/><path d="M101 100h200v104H101zM101 140h200M161 140v64" stroke="#333" stroke-width="2" fill="none"/><use xlink:href="#w" transform="matrix(1,0,0,1,111,100) translate(36.55 23.6)"/><use xlink:href="#c" transform="matrix(1,0,0,1,106,142.5) translate(16.025 17.1)"/><use xlink:href="#d" transform="matrix(1,0,0,1,166,142.5) translate(37.025 17.1)"/><use xlink:href="#m" transform="matrix(1,0,0,1,106,174.5) translate(1.0499999999999972 17.1)"/><use xlink:href="#n" transform="matrix(1,0,0,1,166,174.5) translate(41.55 17.1)"/><path d="M80 156.04h-8c-6.63 0-12 5.37-12 12V376c0 6.62 5.37 12 12 12h8.6" stroke="#333" fill="none"/><path d="M80 146.04v20M100 156.04H80M99.78 398l-20-10 20-10M99.78 388h-20" stroke="#333" fill="#fff"/><path d="M421 355.96h28.98s.02 0 .02.02c0 0 0 .02.02.02h29.57" stroke="#333" fill="none"/><path d="M421 365.96v-20M401 355.96h20M498.78 366l-20-10 20-10M498.78 356h-20" stroke="#333" fill="#fff"/><path d="M921 175.88h8c6.63 0 12 5.37 12 12V376c0 6.63-5.37 12-12 12h-8.6" stroke="#333" fill="none"/><path d="M921 185.88v-20M901 175.88h20M901.22 378l20 10-20 10M901.22 388h20" stroke="#333" fill="#fff"/><path d="M80.6 484.07H72c-6.63 0-12 5.37-12 12V624c0 6.63 5.37 12 12 12h8" stroke="#333" fill="none"/><path d="M99.78 494.07l-20-10 20-10M99.78 484.07h-20M80 626v20M100 636H80" stroke="#333" fill="#fff"/><defs><path d="M30 0v-248h187v28H63v79h144v27H63v87h162V0H30" id="x"/><path d="M233-177c-1 41-23 64-60 70L243 0h-38l-65-103H63V0H30v-248c88 3 205-21 203 71zM63-129c60-2 137 13 137-47 0-61-80-42-137-45v92" id="y"/><path d="M30-248c118-7 216 8 213 122C240-48 200 0 122 0H30v-248zM63-27c89 8 146-16 146-99s-60-101-146-95v194" id="z"/><g id="a"><use transform="matrix(0.05,0,0,0.05,0,0)" xlink:href="#x"/><use transform="matrix(0.05,0,0,0.05,12,0)" xlink:href="#y"/><use transform="matrix(0.05,0,0,0.05,24.950000000000003,0)" xlink:href="#z"/></g><path fill="#333" d="M140-251c81 0 123 46 123 126C263-46 219 4 140 4 59 4 17-45 17-125s42-126 123-126zm0 227c63 0 89-41 89-101s-29-99-89-99c-61 0-89 39-89 99S79-25 140-24" id="A"/><path fill="#333" d="M114-163C36-179 61-72 57 0H25l-1-190h30c1 12-1 29 2 39 6-27 23-49 58-41v29" id="B"/><path fill="#333" d="M85-194c31 0 48 13 60 33l-1-100h32l1 261h-30c-2-10 0-23-3-31C134-8 116 4 85 4 32 4 16-35 15-94c0-66 23-100 70-100zm9 24c-40 0-46 34-46 75 0 40 6 74 45 74 42 0 51-32 51-76 0-42-9-74-50-73" id="C"/><path fill="#333" d="M100-194c63 0 86 42 84 106H49c0 40 14 67 53 68 26 1 43-12 49-29l28 8c-11 28-37 45-77 45C44 4 14-33 15-96c1-61 26-98 85-98zm52 81c6-60-76-77-97-28-3 7-6 17-6 28h103" id="D"/><g id="b"><use transform="matrix(0.05,0,0,0.05,0,0)" xlink:href="#A"/><use transform="matrix(0.05,0,0,0.05,14,0)" xlink:href="#B"/><use transform="matrix(0.05,0,0,0.05,19.95,0)" xlink:href="#C"/><use transform="matrix(0.05,0,0,0.05,29.950000000000003,0)" xlink:href="#D"/><use transform="matrix(0.05,0,0,0.05,39.95,0)" xlink:href="#B"/></g><path fill="#333" d="M33 0v-248h34V0H33" id="E"/><path fill="#333" d="M30-248c118-7 216 8 213 122C240-48 200 0 122 0H30v-248zM63-27c89 8 146-16 146-99s-60-101-146-95v194" id="F"/><g id="c"><use transform="matrix(0.05,0,0,0.05,0,0)" xlink:href="#E"/><use transform="matrix(0.05,0,0,0.05,5,0)" xlink:href="#F"/></g><path fill="#333" d="M117-194c89-4 53 116 60 194h-32v-121c0-31-8-49-39-48C34-167 62-67 57 0H25l-1-190h30c1 10-1 24 2 32 11-22 29-35 61-36" id="G"/><path fill="#333" d="M59-47c-2 24 18 29 38 22v24C64 9 27 4 27-40v-127H5v-23h24l9-43h21v43h35v23H59v120" id="H"/><path fill="#333" d="M177-190C167-65 218 103 67 71c-23-6-38-20-44-43l32-5c15 47 100 32 89-28v-30C133-14 115 1 83 1 29 1 15-40 15-95c0-56 16-97 71-98 29-1 48 16 59 35 1-10 0-23 2-32h30zM94-22c36 0 50-32 50-73 0-42-14-75-50-75-39 0-46 34-46 75s6 73 46 73" id="I"/><g id="d"><use transform="matrix(0.05,0,0,0.05,0,0)" xlink:href="#E"/><use transform="matrix(0.05,0,0,0.05,5,0)" xlink:href="#G"/><use transform="matrix(0.05,0,0,0.05,15,0)" xlink:href="#H"/><use transform="matrix(0.05,0,0,0.05,20,0)" xlink:href="#D"/><use transform="matrix(0.05,0,0,0.05,30,0)" xlink:href="#I"/><use transform="matrix(0.05,0,0,0.05,40,0)" xlink:href="#D"/><use transform="matrix(0.05,0,0,0.05,50,0)" xlink:href="#B"/></g><path fill="#333" d="M185-189c-5-48-123-54-124 2 14 75 158 14 163 119 3 78-121 87-175 55-17-10-28-26-33-46l33-7c5 56 141 63 141-1 0-78-155-14-162-118-5-82 145-84 179-34 5 7 8 16 11 25" id="J"/><path fill="#333" d="M141-36C126-15 110 5 73 4 37 3 15-17 15-53c-1-64 63-63 125-63 3-35-9-54-41-54-24 1-41 7-42 31l-33-3c5-37 33-52 76-52 45 0 72 20 72 64v82c-1 20 7 32 28 27v20c-31 9-61-2-59-35zM48-53c0 20 12 33 32 33 41-3 63-29 60-74-43 2-92-5-92 41" id="K"/><path fill="#333" d="M84 4C-5 8 30-112 23-190h32v120c0 31 7 50 39 49 72-2 45-101 50-169h31l1 190h-30c-1-10 1-25-2-33-11 22-28 36-60 37" id="L"/><path fill="#333" d="M135-143c-3-34-86-38-87 0 15 53 115 12 119 90S17 21 10-45l28-5c4 36 97 45 98 0-10-56-113-15-118-90-4-57 82-63 122-42 12 7 21 19 24 35" id="M"/><path fill="#333" d="M-5 72V49h209v23H-5" id="N"/><g id="e"><use transform="matrix(0.05,0,0,0.05,0,0)" xlink:href="#J"/><use transform="matrix(0.05,0,0,0.05,12,0)" xlink:href="#H"/><use transform="matrix(0.05,0,0,0.05,17,0)" xlink:href="#K"/><use transform="matrix(0.05,0,0,0.05,27,0)" xlink:href="#H"/><use transform="matrix(0.05,0,0,0.05,32,0)" xlink:href="#L"/><use transform="matrix(0.05,0,0,0.05,42,0)" xlink:href="#M"/><use transform="matrix(0.05,0,0,0.05,51,0)" xlink:href="#N"/><use transform="matrix(0.05,0,0,0.05,61,0)" xlink:href="#E"/><use transform="matrix(0.05,0,0,0.05,66,0)" xlink:href="#F"/></g><path fill="#333" d="M212-179c-10-28-35-45-73-45-59 0-87 40-87 99 0 60 29 101 89 101 43 0 62-24 78-52l27 14C228-24 195 4 139 4 59 4 22-46 18-125c-6-104 99-153 187-111 19 9 31 26 39 46" id="O"/><g id="f"><use transform="matrix(0.05,0,0,0.05,0,0)" xlink:href="#O"/><use transform="matrix(0.05,0,0,0.05,12.950000000000001,0)" xlink:href="#B"/><use transform="matrix(0.05,0,0,0.05,18.900000000000002,0)" xlink:href="#D"/><use transform="matrix(0.05,0,0,0.05,28.900000000000002,0)" xlink:href="#K"/><use transform="matrix(0.05,0,0,0.05,38.900000000000006,0)" xlink:href="#H"/><use transform="matrix(0.05,0,0,0.05,43.900000000000006,0)" xlink:href="#D"/><use transform="matrix(0.05,0,0,0.05,53.900000000000006,0)" xlink:href="#C"/></g><path fill="#333" d="M127-220V0H93v-220H8v-28h204v28h-85" id="P"/><path fill="#333" d="M24-231v-30h32v30H24zM24 0v-190h32V0H24" id="Q"/><path fill="#333" d="M210-169c-67 3-38 105-44 169h-31v-121c0-29-5-50-35-48C34-165 62-65 56 0H25l-1-190h30c1 10-1 24 2 32 10-44 99-50 107 0 11-21 27-35 58-36 85-2 47 119 55 194h-31v-121c0-29-5-49-35-48" id="R"/><g id="g"><use transform="matrix(0.05,0,0,0.05,0,0)" xlink:href="#F"/><use transform="matrix(0.05,0,0,0.05,12.950000000000001,0)" xlink:href="#K"/><use transform="matrix(0.05,0,0,0.05,22.950000000000003,0)" xlink:href="#H"/><use transform="matrix(0.05,0,0,0.05,27.950000000000003,0)" xlink:href="#K"/><use transform="matrix(0.05,0,0,0.05,37.95,0)" xlink:href="#P"/><use transform="matrix(0.05,0,0,0.05,48.25000000000001,0)" xlink:href="#Q"/><use transform="matrix(0.05,0,0,0.05,52.20000000000002,0)" xlink:href="#R"/><use transform="matrix(0.05,0,0,0.05,67.15,0)" xlink:href="#D"/></g><path d="M30 0v-248h33v221h125V0H30" id="S"/><path d="M141-36C126-15 110 5 73 4 37 3 15-17 15-53c-1-64 63-63 125-63 3-35-9-54-41-54-24 1-41 7-42 31l-33-3c5-37 33-52 76-52 45 0 72 20 72 64v82c-1 20 7 32 28 27v20c-31 9-61-2-59-35zM48-53c0 20 12 33 32 33 41-3 63-29 60-74-43 2-92-5-92 41" id="T"/><path d="M135-143c-3-34-86-38-87 0 15 53 115 12 119 90S17 21 10-45l28-5c4 36 97 45 98 0-10-56-113-15-118-90-4-57 82-63 122-42 12 7 21 19 24 35" id="U"/><path d="M59-47c-2 24 18 29 38 22v24C64 9 27 4 27-40v-127H5v-23h24l9-43h21v43h35v23H59v120" id="V"/><path d="M-5 72V49h209v23H-5" id="W"/><path d="M240 0l2-218c-23 76-54 145-80 218h-23L58-218 59 0H30v-248h44l77 211c21-75 51-140 76-211h43V0h-30" id="X"/><path d="M100-194c62-1 85 37 85 99 1 63-27 99-86 99S16-35 15-95c0-66 28-99 85-99zM99-20c44 1 53-31 53-75 0-43-8-75-51-75s-53 32-53 75 10 74 51 75" id="Y"/><path d="M85-194c31 0 48 13 60 33l-1-100h32l1 261h-30c-2-10 0-23-3-31C134-8 116 4 85 4 32 4 16-35 15-94c0-66 23-100 70-100zm9 24c-40 0-46 34-46 75 0 40 6 74 45 74 42 0 51-32 51-76 0-42-9-74-50-73" id="Z"/><path d="M24-231v-30h32v30H24zM24 0v-190h32V0H24" id="aa"/><path d="M101-234c-31-9-42 10-38 44h38v23H63V0H32v-167H5v-23h27c-7-52 17-82 69-68v24" id="ab"/><path d="M100-194c63 0 86 42 84 106H49c0 40 14 67 53 68 26 1 43-12 49-29l28 8c-11 28-37 45-77 45C44 4 14-33 15-96c1-61 26-98 85-98zm52 81c6-60-76-77-97-28-3 7-6 17-6 28h103" id="ac"/><g id="h"><use transform="matrix(0.05,0,0,0.05,0,0)" xlink:href="#S"/><use transform="matrix(0.05,0,0,0.05,10,0)" xlink:href="#T"/><use transform="matrix(0.05,0,0,0.05,20,0)" xlink:href="#U"/><use transform="matrix(0.05,0,0,0.05,29,0)" xlink:href="#V"/><use transform="matrix(0.05,0,0,0.05,34,0)" xlink:href="#W"/><use transform="matrix(0.05,0,0,0.05,44,0)" xlink:href="#X"/><use transform="matrix(0.05,0,0,0.05,58.95,0)" xlink:href="#Y"/><use transform="matrix(0.05,0,0,0.05,68.95,0)" xlink:href="#Z"/><use transform="matrix(0.05,0,0,0.05,78.95,0)" xlink:href="#aa"/><use transform="matrix(0.05,0,0,0.05,82.9,0)" xlink:href="#ab"/><use transform="matrix(0.05,0,0,0.05,87.9,0)" xlink:href="#aa"/><use transform="matrix(0.05,0,0,0.05,91.85000000000001,0)" xlink:href="#ac"/><use transform="matrix(0.05,0,0,0.05,101.85000000000001,0)" xlink:href="#Z"/></g><path d="M127-220V0H93v-220H8v-28h204v28h-85" id="ad"/><path d="M210-169c-67 3-38 105-44 169h-31v-121c0-29-5-50-35-48C34-165 62-65 56 0H25l-1-190h30c1 10-1 24 2 32 10-44 99-50 107 0 11-21 27-35 58-36 85-2 47 119 55 194h-31v-121c0-29-5-49-35-48" id="ae"/><g id="i"><use transform="matrix(0.05,0,0,0.05,0,0)" xlink:href="#z"/><use transform="matrix(0.05,0,0,0.05,12.950000000000001,0)" xlink:href="#T"/><use transform="matrix(0.05,0,0,0.05,22.950000000000003,0)" xlink:href="#V"/><use transform="matrix(0.05,0,0,0.05,27.950000000000003,0)" xlink:href="#T"/><use transform="matrix(0.05,0,0,0.05,37.95,0)" xlink:href="#ad"/><use transform="matrix(0.05,0,0,0.05,48.25000000000001,0)" xlink:href="#aa"/><use transform="matrix(0.05,0,0,0.05,52.20000000000002,0)" xlink:href="#ae"/><use transform="matrix(0.05,0,0,0.05,67.15,0)" xlink:href="#ac"/></g><path d="M212-179c-10-28-35-45-73-45-59 0-87 40-87 99 0 60 29 101 89 101 43 0 62-24 78-52l27 14C228-24 195 4 139 4 59 4 22-46 18-125c-6-104 99-153 187-111 19 9 31 26 39 46" id="af"/><path d="M84 4C-5 8 30-112 23-190h32v120c0 31 7 50 39 49 72-2 45-101 50-169h31l1 190h-30c-1-10 1-25-2-33-11 22-28 36-60 37" id="ag"/><path d="M114-163C36-179 61-72 57 0H25l-1-190h30c1 12-1 29 2 39 6-27 23-49 58-41v29" id="ah"/><path d="M33 0v-248h34V0H33" id="ai"/><g id="j"><use transform="matrix(0.05,0,0,0.05,0,0)" xlink:href="#af"/><use transform="matrix(0.05,0,0,0.05,12.950000000000001,0)" xlink:href="#ag"/><use transform="matrix(0.05,0,0,0.05,22.950000000000003,0)" xlink:href="#U"/><use transform="matrix(0.05,0,0,0.05,31.950000000000003,0)" xlink:href="#V"/><use transform="matrix(0.05,0,0,0.05,36.95,0)" xlink:href="#Y"/><use transform="matrix(0.05,0,0,0.05,46.95,0)" xlink:href="#ae"/><use transform="matrix(0.05,0,0,0.05,61.900000000000006,0)" xlink:href="#ac"/><use transform="matrix(0.05,0,0,0.05,71.9,0)" xlink:href="#ah"/><use transform="matrix(0.05,0,0,0.05,77.85000000000001,0)" xlink:href="#W"/><use transform="matrix(0.05,0,0,0.05,87.85000000000001,0)" xlink:href="#ai"/><use transform="matrix(0.05,0,0,0.05,92.85000000000001,0)" xlink:href="#z"/></g><path d="M117-194c89-4 53 116 60 194h-32v-121c0-31-8-49-39-48C34-167 62-67 57 0H25l-1-190h30c1 10-1 24 2 32 11-22 29-35 61-36" id="aj"/><path d="M177-190C167-65 218 103 67 71c-23-6-38-20-44-43l32-5c15 47 100 32 89-28v-30C133-14 115 1 83 1 29 1 15-40 15-95c0-56 16-97 71-98 29-1 48 16 59 35 1-10 0-23 2-32h30zM94-22c36 0 50-32 50-73 0-42-14-75-50-75-39 0-46 34-46 75s6 73 46 73" id="ak"/><g id="k"><use transform="matrix(0.05,0,0,0.05,0,0)" xlink:href="#ai"/><use transform="matrix(0.05,0,0,0.05,5,0)" xlink:href="#aj"/><use transform="matrix(0.05,0,0,0.05,15,0)" xlink:href="#V"/><use transform="matrix(0.05,0,0,0.05,20,0)" xlink:href="#ac"/><use transform="matrix(0.05,0,0,0.05,30,0)" xlink:href="#ak"/><use transform="matrix(0.05,0,0,0.05,40,0)" xlink:href="#ac"/><use transform="matrix(0.05,0,0,0.05,50,0)" xlink:href="#ah"/></g><path fill="#333" d="M30-248c87 1 191-15 191 75 0 78-77 80-158 76V0H30v-248zm33 125c57 0 124 11 124-50 0-59-68-47-124-48v98" id="al"/><path fill="#333" d="M100-194c62-1 85 37 85 99 1 63-27 99-86 99S16-35 15-95c0-66 28-99 85-99zM99-20c44 1 53-31 53-75 0-43-8-75-51-75s-53 32-53 75 10 74 51 75" id="am"/><path fill="#333" d="M96-169c-40 0-48 33-48 73s9 75 48 75c24 0 41-14 43-38l32 2c-6 37-31 61-74 61-59 0-76-41-82-99-10-93 101-131 147-64 4 7 5 14 7 22l-32 3c-4-21-16-35-41-35" id="an"/><g id="l"><use transform="matrix(0.05,0,0,0.05,0,0)" xlink:href="#al"/><use transform="matrix(0.05,0,0,0.05,12,0)" xlink:href="#B"/><use transform="matrix(0.05,0,0,0.05,17.95,0)" xlink:href="#am"/><use transform="matrix(0.05,0,0,0.05,27.950000000000003,0)" xlink:href="#C"/><use transform="matrix(0.05,0,0,0.05,37.95,0)" xlink:href="#L"/><use transform="matrix(0.05,0,0,0.05,47.95,0)" xlink:href="#an"/><use transform="matrix(0.05,0,0,0.05,56.95,0)" xlink:href="#H"/></g><path fill="#333" d="M190 0L58-211 59 0H30v-248h39L202-35l-2-213h31V0h-41" id="ao"/><g id="m"><use transform="matrix(0.05,0,0,0.05,0,0)" xlink:href="#ao"/><use transform="matrix(0.05,0,0,0.05,12.950000000000001,0)" xlink:href="#K"/><use transform="matrix(0.05,0,0,0.05,22.950000000000003,0)" xlink:href="#R"/><use transform="matrix(0.05,0,0,0.05,37.900000000000006,0)" xlink:href="#D"/></g><g id="n"><use transform="matrix(0.05,0,0,0.05,0,0)" xlink:href="#J"/><use transform="matrix(0.05,0,0,0.05,12,0)" xlink:href="#H"/><use transform="matrix(0.05,0,0,0.05,17,0)" xlink:href="#B"/><use transform="matrix(0.05,0,0,0.05,22.95,0)" xlink:href="#Q"/><use transform="matrix(0.05,0,0,0.05,26.899999999999995,0)" xlink:href="#G"/><use transform="matrix(0.05,0,0,0.05,36.9,0)" xlink:href="#I"/></g><g id="o"><use transform="matrix(0.05,0,0,0.05,0,0)" xlink:href="#al"/><use transform="matrix(0.05,0,0,0.05,12,0)" xlink:href="#B"/><use transform="matrix(0.05,0,0,0.05,17.95,0)" xlink:href="#Q"/><use transform="matrix(0.05,0,0,0.05,21.9,0)" xlink:href="#an"/><use transform="matrix(0.05,0,0,0.05,30.899999999999995,0)" xlink:href="#D"/></g><path fill="#333" d="M63-220v92h138v28H63V0H30v-248h175v28H63" id="ap"/><path fill="#333" d="M24 0v-261h32V0H24" id="aq"/><g id="p"><use transform="matrix(0.05,0,0,0.05,0,0)" xlink:href="#ap"/><use transform="matrix(0.05,0,0,0.05,10.950000000000001,0)" xlink:href="#aq"/><use transform="matrix(0.05,0,0,0.05,14.9,0)" xlink:href="#am"/><use transform="matrix(0.05,0,0,0.05,24.900000000000002,0)" xlink:href="#K"/><use transform="matrix(0.05,0,0,0.05,34.900000000000006,0)" xlink:href="#H"/></g><g id="q"><use transform="matrix(0.05,0,0,0.05,0,0)" xlink:href="#O"/><use transform="matrix(0.05,0,0,0.05,12.950000000000001,0)" xlink:href="#L"/><use transform="matrix(0.05,0,0,0.05,22.950000000000003,0)" xlink:href="#M"/><use transform="matrix(0.05,0,0,0.05,31.950000000000003,0)" xlink:href="#H"/><use transform="matrix(0.05,0,0,0.05,36.95,0)" xlink:href="#am"/><use transform="matrix(0.05,0,0,0.05,46.95,0)" xlink:href="#R"/><use transform="matrix(0.05,0,0,0.05,61.900000000000006,0)" xlink:href="#D"/><use transform="matrix(0.05,0,0,0.05,71.9,0)" xlink:href="#B"/></g><g id="r"><use transform="matrix(0.05,0,0,0.05,0,0)" xlink:href="#A"/><use transform="matrix(0.05,0,0,0.05,14,0)" xlink:href="#B"/><use transform="matrix(0.05,0,0,0.05,19.95,0)" xlink:href="#C"/><use transform="matrix(0.05,0,0,0.05,29.950000000000003,0)" xlink:href="#D"/><use transform="matrix(0.05,0,0,0.05,39.95,0)" xlink:href="#B"/></g><g id="s"><use transform="matrix(0.05,0,0,0.05,0,0)" xlink:href="#F"/><use transform="matrix(0.05,0,0,0.05,12.950000000000001,0)" xlink:href="#D"/><use transform="matrix(0.05,0,0,0.05,22.950000000000003,0)" xlink:href="#H"/><use transform="matrix(0.05,0,0,0.05,27.950000000000003,0)" xlink:href="#K"/><use transform="matrix(0.05,0,0,0.05,37.95,0)" xlink:href="#Q"/><use transform="matrix(0.05,0,0,0.05,41.900000000000006,0)" xlink:href="#aq"/><use transform="matrix(0.05,0,0,0.05,45.85000000000001,0)" xlink:href="#M"/></g><g id="t"><use transform="matrix(0.05,0,0,0.05,0,0)" xlink:href="#A"/><use transform="matrix(0.05,0,0,0.05,14,0)" xlink:href="#B"/><use transform="matrix(0.05,0,0,0.05,19.95,0)" xlink:href="#C"/><use transform="matrix(0.05,0,0,0.05,29.950000000000003,0)" xlink:href="#D"/><use transform="matrix(0.05,0,0,0.05,39.95,0)" xlink:href="#B"/><use transform="matrix(0.05,0,0,0.05,45.900000000000006,0)" xlink:href="#N"/><use transform="matrix(0.05,0,0,0.05,55.900000000000006,0)" xlink:href="#E"/><use transform="matrix(0.05,0,0,0.05,60.900000000000006,0)" xlink:href="#F"/></g><g id="u"><use transform="matrix(0.05,0,0,0.05,0,0)" xlink:href="#al"/><use transform="matrix(0.05,0,0,0.05,12,0)" xlink:href="#B"/><use transform="matrix(0.05,0,0,0.05,17.95,0)" xlink:href="#am"/><use transform="matrix(0.05,0,0,0.05,27.950000000000003,0)" xlink:href="#C"/><use transform="matrix(0.05,0,0,0.05,37.95,0)" xlink:href="#L"/><use transform="matrix(0.05,0,0,0.05,47.95,0)" xlink:href="#an"/><use transform="matrix(0.05,0,0,0.05,56.95,0)" xlink:href="#H"/><use transform="matrix(0.05,0,0,0.05,61.95,0)" xlink:href="#N"/><use transform="matrix(0.05,0,0,0.05,71.95,0)" xlink:href="#E"/><use transform="matrix(0.05,0,0,0.05,76.95,0)" xlink:href="#F"/></g><path d="M140-251c81 0 123 46 123 126C263-53 228-8 163 1c7 30 30 48 69 40v23c-55 16-95-15-103-61C56-3 17-48 17-125c0-80 42-126 123-126zm0 227c63 0 89-41 89-101s-29-99-89-99c-61 0-89 39-89 99S79-25 140-24" id="ar"/><path d="M179-190L93 31C79 59 56 82 12 73V49c39 6 53-20 64-50L1-190h34L92-34l54-156h33" id="as"/><g id="v"><use transform="matrix(0.05,0,0,0.05,0,0)" xlink:href="#ar"/><use transform="matrix(0.05,0,0,0.05,14,0)" xlink:href="#ag"/><use transform="matrix(0.05,0,0,0.05,24,0)" xlink:href="#T"/><use transform="matrix(0.05,0,0,0.05,34,0)" xlink:href="#aj"/><use transform="matrix(0.05,0,0,0.05,44,0)" xlink:href="#V"/><use transform="matrix(0.05,0,0,0.05,49,0)" xlink:href="#aa"/><use transform="matrix(0.05,0,0,0.05,52.95,0)" xlink:href="#V"/><use transform="matrix(0.05,0,0,0.05,57.95,0)" xlink:href="#as"/></g><g id="w"><use transform="matrix(0.05,0,0,0.05,0,0)" xlink:href="#A"/><use transform="matrix(0.05,0,0,0.05,14,0)" xlink:href="#B"/><use transform="matrix(0.05,0,0,0.05,19.95,0)" xlink:href="#C"/><use transform="matrix(0.05,0,0,0.05,29.950000000000003,0)" xlink:href="#D"/><use transform="matrix(0.05,0,0,0.05,39.95,0)" xlink:href="#B"/><use transform="matrix(0.05,0,0,0.05,45.900000000000006,0)" xlink:href="#N"/><use transform="matrix(0.05,0,0,0.05,55.900000000000006,0)" xlink:href="#J"/><use transform="matrix(0.05,0,0,0.05,67.9,0)" xlink:href="#H"/><use transform="matrix(0.05,0,0,0.05,72.9,0)" xlink:href="#K"/><use transform="matrix(0.05,0,0,0.05,82.9,0)" xlink:href="#H"/><use transform="matrix(0.05,0,0,0.05,87.9,0)" xlink:href="#L"/><use transform="matrix(0.05,0,0,0.05,97.9,0)" xlink:href="#M"/></g></defs></g></svg>